<svg xmlns:svg="http://www.w3.org/2000/svg" xmlns="http://www.w3.org/2000/svg" version="1.0" id="svg5346" style="zoom: 1;" viewBox="0 0 15.06 15.13"><defs id="defs5348"/><path d="M0,5.6843419e-14 L0,4.21875 C0.32875,4.1975 0.6575,4.15125 1,4.125 C4.66624,3.84374 9.665,3.2075 15.0625,0.875 L15.0625,5.6843419e-14 L0,5.6843419e-14 M15.0625,1.21875 C9.75124,3.6 4.44625,4.61 0,4.96875 L0,6.71875 C4.4075,5.9425 9.79125,4.5675 15.0625,2.0625 L15.0625,1.21875 M15.0625,2.625 C9.89374,5.19125 4.53125,6.78375 0,7.78125 L0,10.75 C3.99125,9.12374 9.56375,6.615 15.0625,3.34375 L15.0625,2.625 M15.0625,4.46875 C9.57624,8.0575 4.005,10.9375 0,12.84375 L0,15.125 C3.585,13.27749 8.82875,10.29625 15.0625,5.9375 L15.0625,4.46875 M15.0625,6.28125 C10.21375,9.91625 5.27375,12.9425 1.40625,15.125 L3.46875,15.125 C6.17875,13.51749 9.47375,11.42375 12.75,8.96875 C13.515,8.39625 14.27375,7.82875 15.0625,7.21875 L15.0625,6.28125 M15.0625,7.78125 C11.63249,10.67125 8.26,13.15625 5.40625,15.125 L15.0625,15.125 L15.0625,7.78125 " id="path4341" style="fill:#009374;fill-opacity:1;fill-rule:nonzero;stroke:none"/><path d="M 15.0625,0.875 C 9.66499,3.2075 4.66625,3.84375 1,4.125 C 0.65749,4.1525 0.32875,4.1975 0,4.21875 L 0,4.96875 C 4.44625,4.60875 9.75125,3.60125 15.0625,1.21875 L 15.0625,0.875 z M 15.0625,2.0625 C 9.79124,4.5675 4.4075,5.9425 0,6.71875 L 0,7.78125 C 4.53125,6.78375 9.89375,5.19125 15.0625,2.625 L 15.0625,2.0625 z M 15.0625,3.34375 C 9.56374,6.615 3.99125,9.12375 0,10.75 L 0,12.84375 C 4.005,10.9375 9.57625,8.0575 15.0625,4.46875 L 15.0625,3.34375 z M 15.0625,5.9375 C 8.82874,10.29625 3.585,13.2775 0,15.125 L 1.40625,15.125 C 5.27375,12.94249 10.21375,9.91625 15.0625,6.28125 L 15.0625,5.9375 z M 15.0625,7.21875 C 14.27375,7.82876 13.515,8.39625 12.75,8.96875 C 9.47375,11.42375 6.17875,13.5175 3.46875,15.125 L 5.40625,15.125 C 8.25999,13.15624 11.63125,10.67125 15.0625,7.78125 L 15.0625,7.21875 z" id="path4365" style="fill:#ffffff;fill-opacity:1;fill-rule:nonzero;stroke:none"/></svg>
