<svg id="svg" version="1.1" xmlns="http://www.w3.org/2000/svg" xmlns:xlink="http://www.w3.org/1999/xlink" width="400" height="400" viewBox="0, 0, 400,400"><g id="svgg"><path id="path0" d="M59.865 86.728 C 59.499 87.132,59.200 87.655,59.200 87.889 C 59.200 88.123,58.930 88.418,58.600 88.545 C 58.270 88.671,58.000 89.222,58.000 89.768 C 58.000 90.314,58.270 91.798,58.600 93.065 C 58.944 94.384,59.200 97.112,59.200 99.452 C 59.200 103.836,59.739 105.511,61.443 106.423 C 62.953 107.231,63.696 109.480,63.879 113.800 C 64.062 118.102,64.756 120.397,66.316 121.861 C 67.683 123.144,68.800 126.744,68.800 129.864 C 68.800 133.460,69.841 137.131,71.221 138.400 C 72.767 139.822,73.596 142.343,73.624 145.708 C 73.665 150.742,74.085 152.280,75.895 154.037 C 77.847 155.932,78.394 157.777,78.697 163.497 L 78.915 167.594 80.579 169.356 C 82.433 171.319,83.107 173.400,83.445 178.200 C 83.769 182.810,83.960 183.465,85.538 185.374 C 87.343 187.558,87.866 189.433,88.393 195.600 L 88.786 200.200 90.337 201.632 C 94.024 205.037,94.006 216.166,90.312 217.635 C 89.294 218.039,83.060 218.190,62.524 218.308 C 32.576 218.480,35.094 218.133,35.280 222.061 C 35.472 226.108,32.554 225.800,70.658 225.800 C 109.775 225.800,105.433 226.609,105.023 219.400 C 104.683 213.434,104.243 211.391,103.057 210.274 C 101.297 208.616,100.838 207.402,100.230 202.799 C 99.106 194.300,99.145 194.479,98.387 194.281 C 96.663 193.830,95.665 191.259,95.405 186.600 C 95.099 181.105,94.614 179.086,93.481 178.582 C 91.673 177.780,90.924 175.919,90.638 171.519 C 90.316 166.551,89.666 163.663,88.762 163.180 C 87.256 162.374,86.298 159.891,85.760 155.400 C 84.820 147.561,84.804 147.497,83.400 146.317 C 81.660 144.854,81.341 143.832,80.807 138.000 C 80.237 131.786,80.157 131.460,79.088 130.985 C 77.169 130.134,76.497 128.331,76.222 123.299 C 76.081 120.715,75.793 118.287,75.583 117.905 C 75.372 117.523,75.200 116.983,75.200 116.705 C 75.200 116.427,74.611 115.730,73.890 115.155 C 72.188 113.797,71.200 110.717,71.200 106.765 C 71.199 103.430,70.352 100.696,68.768 98.918 C 67.244 97.207,66.400 94.690,66.400 91.853 C 66.400 88.897,65.679 87.752,63.554 87.337 C 62.809 87.191,61.824 86.829,61.365 86.532 C 60.640 86.064,60.442 86.090,59.865 86.728 M200.000 86.352 C 200.000 86.646,199.095 87.728,196.189 90.907 C 194.612 92.632,194.532 92.916,194.225 97.800 C 193.918 102.699,193.301 104.524,191.343 106.318 L 189.725 107.800 189.488 112.400 C 189.172 118.508,187.876 122.400,186.158 122.400 C 185.504 122.400,185.244 123.571,184.786 128.564 C 184.369 133.101,183.413 137.200,182.772 137.200 C 182.567 137.200,182.400 137.451,182.400 137.757 C 182.400 138.064,182.139 138.414,181.821 138.537 C 180.744 138.950,180.110 140.984,179.869 144.800 C 179.511 150.491,178.163 154.400,176.560 154.400 C 175.769 154.400,175.274 156.440,175.053 160.600 C 174.788 165.596,173.941 168.367,172.358 169.420 C 170.893 170.395,170.409 172.079,170.009 177.600 C 169.684 182.073,168.985 184.271,167.505 185.463 C 166.248 186.476,165.200 190.112,165.200 193.464 C 165.200 197.231,163.542 201.942,162.200 201.989 C 161.289 202.021,160.400 205.415,160.400 208.858 C 160.400 213.381,159.595 215.913,157.778 217.104 C 156.188 218.146,155.911 218.978,156.078 222.209 L 156.200 224.585 158.400 225.175 C 162.209 226.198,223.390 226.078,224.914 225.045 C 226.077 224.256,226.197 220.283,225.099 218.900 C 224.789 218.510,219.469 218.400,200.928 218.400 C 169.217 218.400,168.787 218.323,168.813 212.680 C 168.826 209.900,169.576 208.003,170.664 207.999 C 171.491 207.995,172.352 204.418,172.493 200.400 C 172.658 195.713,173.236 194.096,175.154 192.964 C 176.660 192.074,177.109 190.476,177.394 185.000 C 177.647 180.139,178.309 178.136,180.051 176.966 C 181.193 176.198,181.174 176.276,182.152 168.400 C 182.718 163.843,183.247 162.340,184.825 160.800 C 186.041 159.614,186.662 157.192,187.032 152.200 C 187.320 148.307,187.885 146.756,189.580 145.200 C 191.119 143.788,191.507 142.413,191.782 137.400 C 192.049 132.526,192.744 130.442,194.439 129.441 C 195.578 128.767,196.085 126.636,196.635 120.200 C 196.939 116.636,197.534 115.122,199.266 113.505 C 200.514 112.339,200.626 111.886,201.606 104.000 C 202.095 100.072,202.757 98.477,204.546 96.922 C 207.282 94.543,206.284 87.205,203.224 87.198 C 202.661 87.196,201.705 86.937,201.100 86.621 C 200.495 86.306,200.000 86.184,200.000 86.352 M320.001 87.797 C 319.808 88.306,319.458 88.840,319.225 88.985 C 318.991 89.129,318.800 89.616,318.800 90.068 C 318.800 90.519,317.990 91.687,317.000 92.663 C 315.699 93.945,315.200 94.755,315.200 95.582 C 315.200 101.755,313.618 107.760,311.488 109.674 C 311.009 110.104,310.606 111.265,310.376 112.874 C 309.164 121.342,308.784 123.405,308.414 123.529 C 308.186 123.605,308.000 123.926,308.000 124.242 C 308.000 124.558,307.559 125.018,307.020 125.264 C 305.775 125.831,305.206 127.469,305.179 130.560 C 305.167 131.902,304.918 134.342,304.625 135.981 C 304.086 138.994,304.065 139.027,301.371 141.160 C 301.135 141.346,300.725 143.727,300.460 146.450 C 299.872 152.494,299.308 154.504,297.740 156.140 C 296.135 157.815,295.948 158.380,295.601 162.600 C 295.117 168.487,294.507 170.522,292.537 172.831 C 290.849 174.808,290.800 174.944,290.800 177.650 C 290.800 182.988,289.122 188.361,287.444 188.393 C 286.515 188.411,286.025 189.962,286.013 192.917 C 285.991 198.247,285.032 201.932,283.206 203.703 C 281.556 205.303,281.633 205.015,280.990 212.000 C 280.723 214.895,279.748 218.661,279.174 219.016 C 278.968 219.143,278.800 220.382,278.800 221.769 L 278.800 224.291 280.700 225.046 C 283.604 226.199,343.327 226.218,345.730 225.067 C 346.781 224.563,347.188 224.146,347.030 223.734 C 346.904 223.404,346.800 222.269,346.800 221.210 C 346.800 218.488,348.064 218.623,320.400 218.386 C 293.620 218.157,293.616 218.157,291.274 216.066 C 289.753 214.708,289.743 214.621,290.921 213.038 C 291.877 211.751,292.522 208.351,293.053 201.800 C 293.337 198.279,293.933 196.724,295.591 195.174 C 296.815 194.029,296.985 193.366,297.744 186.800 C 298.309 181.904,299.084 179.818,300.592 179.131 C 301.662 178.643,302.400 176.496,302.400 173.870 C 302.400 169.021,303.730 164.050,305.038 164.013 C 306.312 163.976,306.892 162.389,307.212 158.073 C 307.784 150.336,308.466 148.311,310.757 147.548 C 311.046 147.451,311.410 146.063,311.635 144.192 C 312.885 133.833,312.769 134.270,314.955 131.654 C 316.069 130.321,316.390 129.538,316.576 127.696 C 317.466 118.933,318.018 116.954,319.849 115.974 C 320.998 115.359,321.600 113.662,321.599 111.040 C 321.598 105.402,322.735 101.369,324.518 100.686 C 326.239 100.027,327.351 89.752,325.900 87.922 C 324.980 86.762,320.431 86.666,320.001 87.797 M6.733 127.333 C 6.366 127.611,5.934 128.551,5.773 129.420 C 5.611 130.289,5.217 131.402,4.897 131.894 C 4.330 132.767,4.776 135.105,5.987 137.600 C 6.832 139.340,10.566 139.674,14.599 138.371 C 17.354 137.481,17.501 137.288,17.628 134.400 C 17.753 131.565,17.669 131.286,16.475 130.581 C 15.856 130.215,15.027 129.435,14.632 128.847 C 13.333 126.914,8.501 125.988,6.733 127.333 M126.500 127.339 C 125.785 127.574,125.199 127.953,125.199 128.183 C 125.198 128.412,124.656 128.960,123.993 129.400 C 122.181 130.604,121.460 136.722,122.982 137.985 C 123.665 138.552,132.452 138.954,133.183 138.451 C 134.402 137.613,134.343 128.817,133.109 127.300 C 132.616 126.694,128.389 126.719,126.500 127.339 M242.819 127.485 C 242.406 127.950,242.191 129.488,242.072 132.814 C 241.848 139.102,242.024 139.227,250.115 138.543 C 253.502 138.257,253.672 138.088,254.174 134.492 C 254.512 132.068,251.726 127.600,249.876 127.600 C 249.530 127.600,249.136 127.420,249.000 127.200 C 248.570 126.504,243.481 126.739,242.819 127.485 M372.800 127.188 C 372.470 127.408,371.705 127.591,371.100 127.594 C 370.392 127.598,370.000 127.814,370.000 128.200 C 370.000 128.530,369.814 128.800,369.586 128.800 C 367.490 128.800,366.966 137.382,369.000 138.383 C 370.924 139.329,378.065 139.227,379.158 138.238 C 380.366 137.145,380.158 128.716,378.894 127.559 C 378.363 127.072,373.424 126.772,372.800 127.188 M38.488 252.579 C 35.982 253.186,36.252 252.892,35.728 255.588 C 34.952 259.577,35.066 259.600,55.600 259.600 C 76.340 259.600,76.313 259.606,75.552 255.282 L 75.133 252.906 72.390 252.453 C 68.441 251.801,41.285 251.902,38.488 252.579 M183.086 252.588 C 180.015 253.260,180.218 252.697,180.063 260.976 L 179.926 268.286 181.675 269.719 C 183.521 271.232,184.806 273.895,184.802 276.203 C 184.800 277.200,185.105 277.590,186.587 278.485 C 187.688 279.150,188.586 280.071,188.925 280.882 C 189.667 282.656,190.448 283.230,192.484 283.498 C 194.414 283.752,195.733 284.455,197.200 286.010 C 198.745 287.648,200.431 288.142,203.511 287.859 C 209.326 287.324,210.400 287.114,210.400 286.510 C 210.400 285.702,212.719 283.600,213.610 283.600 C 214.736 283.600,216.664 282.339,217.374 281.137 C 217.727 280.538,218.344 279.945,218.744 279.818 C 219.144 279.691,219.711 279.140,220.004 278.593 C 220.296 278.047,220.665 277.600,220.824 277.600 C 220.983 277.600,221.224 277.158,221.360 276.617 C 221.496 276.076,222.385 275.098,223.336 274.444 L 225.065 273.254 225.594 266.275 C 226.180 258.558,225.948 253.848,224.928 252.720 C 224.094 251.798,187.229 251.682,183.086 252.588 M218.316 259.991 C 221.667 261.777,221.986 263.080,219.984 266.800 C 219.333 268.010,218.786 269.450,218.769 270.000 C 218.688 272.619,217.443 274.819,215.416 275.927 C 214.335 276.517,213.161 277.529,212.806 278.177 C 211.710 280.176,209.970 280.836,205.131 281.091 C 198.290 281.452,196.440 280.798,191.994 276.443 C 187.345 271.890,187.056 271.276,187.025 265.867 L 187.000 261.535 188.306 260.367 L 189.613 259.200 203.222 259.200 C 216.013 259.200,216.921 259.248,218.316 259.991 M342.454 263.554 C 339.950 266.230,340.186 266.187,327.296 266.327 C 314.014 266.471,310.908 265.989,307.515 263.255 C 306.579 262.501,305.600 262.965,305.600 264.161 C 305.600 264.704,305.412 265.643,305.182 266.248 C 304.644 267.661,305.298 269.366,307.005 271.000 C 309.712 273.592,309.767 273.600,325.448 273.600 C 342.406 273.600,344.257 273.334,345.431 270.732 C 345.806 269.899,346.538 268.939,347.057 268.600 C 348.108 267.911,348.282 267.006,347.457 266.520 C 347.158 266.344,346.684 265.480,346.404 264.600 C 345.416 261.490,344.590 261.271,342.454 263.554 M38.710 275.943 C 35.557 276.308,35.187 276.787,35.711 279.830 L 36.129 282.259 38.872 282.730 C 45.259 283.825,74.450 283.213,75.220 281.968 C 76.007 280.694,75.984 277.406,75.182 276.604 C 74.343 275.765,44.871 275.231,38.710 275.943 " stroke="none" fill="#fc9c09" fill-rule="evenodd"></path><path id="path1" d="M59.312 82.409 C 57.402 83.176,53.200 88.052,53.200 89.502 C 53.200 90.808,54.416 94.950,55.429 97.095 C 55.973 98.246,56.586 100.496,56.791 102.095 C 56.997 103.693,57.543 106.080,58.004 107.400 C 58.466 108.720,58.950 110.160,59.079 110.600 C 59.207 111.040,59.544 111.670,59.827 112.000 C 60.360 112.621,61.046 115.101,62.207 120.600 C 62.892 123.842,63.810 126.547,64.568 127.552 C 65.092 128.247,66.386 132.352,66.394 133.343 C 66.403 134.519,67.637 139.680,68.224 141.000 C 68.518 141.660,69.216 143.221,69.776 144.469 C 70.336 145.717,70.981 148.053,71.208 149.660 C 71.770 153.617,73.298 158.472,74.400 159.801 C 75.040 160.571,76.370 165.241,76.395 166.800 C 76.423 168.593,78.133 173.543,79.574 176.000 C 79.767 176.330,80.229 178.040,80.600 179.800 C 81.878 185.873,82.542 188.207,83.557 190.200 C 84.724 192.492,85.974 196.823,85.989 198.629 C 86.003 200.209,86.957 203.134,88.503 206.334 C 90.830 211.151,89.646 214.356,85.321 214.949 C 84.313 215.087,73.366 215.200,60.994 215.200 C 35.880 215.200,36.442 215.158,34.397 217.203 C 30.994 220.606,32.897 228.719,37.114 228.786 C 37.617 228.794,38.509 229.115,39.097 229.500 C 40.838 230.641,101.032 230.572,103.400 229.426 C 105.103 228.603,107.195 226.705,107.945 225.303 C 109.339 222.697,107.101 209.500,104.482 204.888 C 103.433 203.041,103.162 202.052,102.217 196.635 C 101.788 194.174,101.059 191.984,99.801 189.381 C 98.811 187.331,98.000 185.171,98.000 184.581 C 98.000 182.088,96.177 175.937,94.272 172.000 C 93.687 170.790,93.206 169.362,93.204 168.826 C 93.195 166.711,90.998 158.526,90.190 157.600 C 89.458 156.760,88.506 154.099,88.259 152.200 C 87.754 148.308,86.653 144.466,85.185 141.472 C 84.313 139.693,83.600 137.852,83.600 137.380 C 83.600 135.883,82.061 129.101,81.621 128.661 C 81.390 128.430,81.198 127.961,81.195 127.620 C 81.192 127.279,80.652 125.940,79.995 124.644 C 79.338 123.348,78.800 121.829,78.800 121.269 C 78.800 119.041,76.609 111.022,75.706 109.945 C 74.902 108.985,73.599 105.363,73.603 104.096 C 73.609 102.110,72.314 97.447,70.966 94.600 C 70.236 93.060,69.354 90.786,69.005 89.546 C 67.522 84.281,62.980 80.936,59.312 82.409 M199.402 82.311 C 196.878 82.898,192.000 90.154,192.000 93.320 C 192.000 94.605,190.695 99.762,190.208 100.400 C 189.020 101.957,187.553 106.591,186.600 111.800 C 186.237 113.780,185.684 115.684,185.370 116.031 C 185.057 116.379,184.800 116.924,184.800 117.242 C 184.800 117.561,184.554 118.177,184.254 118.611 C 183.737 119.358,183.401 120.636,181.739 128.200 C 181.353 129.960,180.533 132.263,179.918 133.318 C 179.303 134.372,178.800 135.526,178.800 135.882 C 178.800 136.238,178.541 137.446,178.225 138.565 C 177.908 139.684,177.340 142.130,176.962 144.000 C 176.584 145.870,176.066 147.580,175.811 147.800 C 174.848 148.632,172.400 156.156,172.400 158.285 C 172.400 159.909,171.403 162.758,169.511 166.544 C 168.876 167.814,167.619 172.934,167.609 174.292 C 167.599 175.677,166.887 177.795,165.353 181.000 C 164.378 183.039,162.800 188.680,162.800 190.129 C 162.800 191.083,161.533 195.314,161.162 195.600 C 160.766 195.905,159.200 199.486,159.203 200.078 C 159.205 200.365,158.922 201.860,158.574 203.400 C 158.226 204.940,157.772 206.979,157.564 207.931 C 157.356 208.884,156.632 210.849,155.954 212.299 C 151.985 220.788,152.898 227.357,158.224 228.627 C 158.871 228.781,159.734 229.198,160.142 229.554 C 160.812 230.137,163.951 230.200,192.342 230.200 L 223.801 230.200 226.273 228.297 C 230.035 225.403,230.362 224.858,230.116 221.895 C 229.998 220.477,229.669 219.208,229.354 218.956 C 229.049 218.712,228.800 218.349,228.800 218.149 C 228.800 217.950,227.911 217.205,226.824 216.494 L 224.848 215.200 200.524 215.194 C 187.146 215.191,175.998 215.056,175.750 214.894 C 173.775 213.603,173.281 210.534,174.400 206.497 C 174.840 204.909,175.200 203.103,175.200 202.484 C 175.200 201.864,175.636 200.467,176.169 199.379 C 178.399 194.825,179.407 191.631,179.857 187.689 C 180.001 186.430,180.732 184.050,181.481 182.400 C 182.230 180.750,182.991 179.040,183.172 178.600 C 183.491 177.825,184.191 174.504,184.818 170.789 C 184.986 169.793,185.861 167.405,186.762 165.482 C 187.663 163.558,188.400 161.567,188.400 161.056 C 188.400 160.545,188.668 159.244,188.996 158.164 C 189.323 157.084,189.593 155.640,189.596 154.956 C 189.598 154.272,190.119 152.652,190.753 151.356 C 192.793 147.187,194.400 141.773,194.400 139.066 C 194.400 138.506,195.141 136.473,196.046 134.549 C 197.511 131.438,199.179 125.319,199.195 123.004 C 199.198 122.565,199.807 120.945,200.550 119.404 C 202.346 115.673,203.201 113.376,203.197 112.292 C 203.190 110.594,204.481 105.790,205.586 103.400 C 207.398 99.479,207.916 97.624,208.436 93.187 L 208.929 88.974 207.835 86.787 C 205.940 83.001,203.041 81.463,199.402 82.311 M318.428 83.900 C 316.557 86.135,316.400 86.345,316.400 86.607 C 316.400 86.739,315.882 87.511,315.248 88.323 C 314.092 89.805,312.800 93.073,312.800 94.514 C 312.800 96.255,311.479 101.155,310.404 103.400 C 308.887 106.569,308.531 107.745,307.436 113.200 C 306.929 115.730,306.138 118.416,305.679 119.169 C 304.653 120.853,303.467 124.699,302.586 129.200 C 302.220 131.070,301.404 133.680,300.773 135.000 C 299.194 138.301,298.002 141.882,297.989 143.363 C 297.977 144.779,296.779 149.504,296.205 150.400 C 294.768 152.642,294.476 153.619,292.507 162.800 C 292.153 164.450,291.667 166.070,291.428 166.400 C 290.255 168.018,288.400 173.381,288.400 175.153 C 288.400 176.503,287.145 181.324,286.618 182.000 C 285.665 183.222,283.595 189.273,283.598 190.827 C 283.601 192.381,282.101 197.766,281.621 197.926 C 281.390 198.003,281.200 198.339,281.200 198.672 C 281.200 199.004,280.950 199.754,280.645 200.338 C 279.849 201.862,278.800 205.671,278.800 207.036 C 278.800 208.836,277.431 213.181,276.164 215.400 C 275.118 217.234,275.022 217.739,275.012 221.475 C 274.998 226.125,275.110 226.328,278.600 228.005 C 279.700 228.534,280.934 229.244,281.342 229.583 C 281.997 230.127,285.767 230.200,313.342 230.200 L 344.600 230.200 346.458 228.900 C 347.480 228.185,348.485 227.600,348.691 227.600 C 348.898 227.600,349.745 226.925,350.574 226.100 C 353.422 223.267,352.184 218.658,347.985 216.456 L 345.588 215.200 321.043 215.200 C 301.889 215.200,296.409 215.090,296.094 214.700 C 295.204 213.601,294.669 209.743,295.144 207.857 C 295.395 206.861,295.600 205.602,295.600 205.060 C 295.600 204.188,297.329 199.764,298.390 197.921 C 298.605 197.548,299.064 195.928,299.411 194.321 C 299.758 192.714,300.307 190.174,300.631 188.676 C 300.956 187.177,301.631 185.287,302.132 184.476 C 303.171 182.795,304.088 179.723,305.020 174.800 C 305.375 172.930,306.181 170.320,306.812 169.000 C 308.587 165.289,309.199 163.744,309.213 162.940 C 309.248 160.995,310.807 154.783,311.708 153.000 C 313.097 150.249,314.001 147.755,313.995 146.692 C 313.980 144.071,316.417 136.000,317.223 136.000 C 317.380 136.000,317.607 135.505,317.726 134.900 C 317.845 134.295,318.123 133.080,318.344 132.200 C 319.466 127.731,320.000 125.171,320.000 124.263 C 320.000 123.710,320.225 123.017,320.500 122.722 C 321.655 121.487,323.080 117.621,323.788 113.800 C 324.572 109.570,325.138 107.637,326.367 105.000 C 328.200 101.065,328.420 100.401,328.802 97.641 C 329.003 96.188,329.375 93.709,329.628 92.131 C 330.152 88.859,329.164 85.911,326.753 83.554 C 324.777 81.623,320.173 81.814,318.428 83.900 M63.477 84.477 C 65.151 85.440,67.085 87.372,67.369 88.365 C 67.469 88.714,67.853 90.260,68.223 91.800 C 68.592 93.340,69.098 94.870,69.347 95.200 C 70.794 97.118,72.386 101.725,72.395 104.016 C 72.402 105.980,73.482 109.997,74.325 111.200 C 75.895 113.438,77.600 118.851,77.600 121.598 C 77.600 123.305,78.873 127.086,80.136 129.130 C 81.276 130.975,81.905 133.126,82.204 136.200 C 82.471 138.944,83.580 143.200,84.028 143.200 C 84.950 143.200,86.567 148.408,87.204 153.434 C 87.535 156.044,88.403 158.597,89.164 159.200 C 90.062 159.912,91.976 166.558,91.991 169.015 C 92.000 170.565,93.144 174.479,93.770 175.101 C 94.108 175.437,95.063 177.495,95.858 179.600 C 96.149 180.370,96.488 182.170,96.611 183.600 C 96.842 186.287,98.002 190.800,98.460 190.800 C 99.574 190.800,101.052 195.711,101.950 202.400 C 102.210 204.331,102.917 206.182,103.631 206.800 C 105.044 208.021,106.801 215.972,106.798 221.129 C 106.794 228.617,107.297 228.522,68.600 228.305 C 41.111 228.151,36.445 227.936,36.070 226.809 C 35.995 226.584,35.678 226.400,35.367 226.400 C 35.055 226.400,34.800 226.189,34.800 225.931 C 34.800 225.674,34.534 225.169,34.208 224.809 C 33.563 224.096,33.783 218.800,34.458 218.800 C 34.646 218.800,34.800 218.530,34.800 218.200 C 34.800 217.870,35.055 217.600,35.367 217.600 C 35.678 217.600,36.008 217.375,36.100 217.100 C 36.230 216.709,42.040 216.556,62.643 216.400 L 89.020 216.200 89.952 215.331 C 91.240 214.131,91.417 208.191,90.231 206.000 C 88.179 202.211,87.200 199.906,87.200 198.866 C 87.200 196.663,85.694 190.584,84.707 188.800 C 83.414 186.466,82.638 183.890,81.814 179.200 C 81.239 175.932,80.319 173.109,79.596 172.400 C 79.134 171.947,77.600 167.719,77.600 166.900 C 77.600 164.948,76.234 159.302,75.390 157.768 C 74.896 156.871,74.305 155.791,74.076 155.368 C 73.115 153.593,72.400 151.071,72.400 149.455 C 72.400 148.505,72.132 146.844,71.804 145.764 C 71.477 144.684,71.207 143.395,71.204 142.900 C 71.202 142.405,71.059 142.000,70.886 142.000 C 69.902 142.000,67.634 135.750,67.611 132.973 C 67.596 131.286,66.568 127.873,65.208 125.000 C 63.757 121.935,62.924 119.159,62.649 116.471 C 62.361 113.661,61.263 110.451,59.614 107.600 C 58.575 105.805,58.000 103.867,58.000 102.166 C 58.000 100.358,57.141 96.356,56.377 94.600 C 56.185 94.160,55.679 92.775,55.252 91.523 L 54.477 89.246 56.238 87.381 C 57.207 86.355,58.000 85.414,58.000 85.290 C 58.000 83.617,61.167 83.147,63.477 84.477 M203.700 84.397 C 208.006 86.302,208.761 95.797,205.005 100.800 C 204.072 102.043,203.432 103.894,202.932 106.800 C 201.895 112.815,201.740 113.441,200.901 115.007 C 198.785 118.956,198.288 120.299,197.962 122.959 C 197.362 127.856,196.256 131.549,195.133 132.403 C 194.559 132.840,193.260 137.533,193.030 140.000 C 192.718 143.345,191.789 145.941,189.092 151.000 C 188.858 151.440,188.543 152.970,188.393 154.400 C 187.996 158.191,187.293 160.596,185.518 164.230 C 184.506 166.300,183.820 168.381,183.604 170.030 C 182.922 175.261,181.557 179.982,180.723 179.995 C 180.257 180.003,178.875 185.220,178.479 188.466 C 178.194 190.804,177.671 192.417,176.277 195.266 C 174.353 199.195,173.626 201.606,173.610 204.113 C 173.604 204.945,173.357 206.207,173.060 206.918 C 172.763 207.629,172.392 209.680,172.235 211.476 L 171.950 214.741 173.826 215.570 C 175.657 216.380,176.281 216.400,200.020 216.400 L 224.338 216.400 226.069 217.720 C 227.706 218.968,227.816 219.179,228.094 221.620 L 228.389 224.200 226.618 225.912 C 224.042 228.403,223.197 228.458,189.800 228.312 C 154.733 228.159,155.137 228.229,154.513 222.179 C 154.302 220.135,155.597 215.209,156.349 215.195 C 157.129 215.181,159.200 208.591,159.200 206.124 C 159.200 204.399,160.707 199.793,161.902 197.865 C 162.426 197.021,163.118 194.951,163.442 193.265 C 164.667 186.884,165.322 184.546,166.375 182.800 C 167.552 180.848,168.800 176.457,168.800 174.270 C 168.800 172.855,170.196 168.000,170.713 167.618 C 171.849 166.778,173.600 161.019,173.600 158.127 C 173.600 156.467,174.164 154.925,176.430 150.400 C 177.071 149.119,177.803 146.613,178.182 144.400 C 179.003 139.605,179.909 136.638,181.176 134.600 C 182.115 133.090,183.581 127.383,183.591 125.200 C 183.596 124.188,184.797 120.368,185.227 120.000 C 186.453 118.948,187.702 114.748,188.262 109.800 C 188.533 107.401,189.205 105.618,190.980 102.590 C 191.575 101.574,192.223 99.287,192.736 96.390 C 193.785 90.469,194.275 89.216,196.317 87.234 C 197.243 86.336,198.000 85.480,198.000 85.332 C 198.000 83.644,200.916 83.165,203.700 84.397 M325.620 84.505 C 326.021 84.756,326.448 85.239,326.569 85.580 C 326.690 85.921,327.173 86.830,327.644 87.600 C 328.959 89.755,328.079 98.374,326.193 101.800 C 324.058 105.680,323.731 106.642,323.054 111.039 C 322.502 114.626,322.061 116.084,320.752 118.639 C 319.674 120.744,318.946 122.869,318.574 125.000 C 317.532 130.956,317.210 132.088,315.741 134.947 C 314.378 137.601,313.674 140.347,312.921 145.945 C 312.791 146.905,312.267 148.435,311.756 149.345 C 311.244 150.255,310.535 151.515,310.180 152.145 C 309.824 152.774,309.184 155.535,308.757 158.280 C 308.259 161.479,307.660 163.851,307.090 164.888 C 304.950 168.775,304.647 169.643,303.909 174.000 C 303.203 178.170,302.582 180.302,301.579 182.000 C 300.416 183.969,299.490 186.433,299.325 188.000 C 299.000 191.096,297.546 196.500,296.640 197.981 C 293.816 202.597,292.548 213.712,294.649 215.430 L 295.800 216.371 320.174 216.386 C 343.869 216.400,344.594 216.423,346.232 217.216 C 349.064 218.586,349.855 219.578,350.178 222.162 C 350.506 224.785,350.599 224.661,346.600 226.873 L 344.200 228.200 313.591 228.200 L 282.981 228.200 280.046 227.019 C 275.526 225.199,274.599 221.414,277.473 216.513 C 278.522 214.724,279.977 209.116,279.994 206.800 C 280.002 205.550,281.079 202.758,282.460 200.400 C 283.435 198.735,284.803 192.927,284.801 190.460 C 284.800 189.944,285.605 187.928,286.588 185.982 C 287.978 183.229,288.518 181.571,289.015 178.521 C 289.761 173.948,290.580 171.310,292.037 168.780 C 292.715 167.602,293.327 165.554,293.770 162.980 C 294.702 157.560,295.505 154.894,296.774 153.000 C 297.811 151.451,299.181 145.817,299.213 142.965 C 299.220 142.324,299.758 140.900,300.408 139.800 C 301.058 138.700,301.695 137.530,301.824 137.200 C 301.953 136.870,302.315 136.009,302.629 135.286 C 302.943 134.564,303.207 133.484,303.216 132.886 C 303.253 130.347,304.758 124.807,306.173 122.000 C 307.145 120.075,307.884 117.854,308.238 115.800 C 308.542 114.040,308.949 111.790,309.143 110.800 C 309.495 109.007,310.660 105.980,311.145 105.600 C 311.790 105.094,312.800 102.770,312.800 101.791 C 312.800 97.845,314.999 90.825,316.862 88.826 C 317.268 88.390,317.600 87.925,317.600 87.793 C 317.600 87.660,318.185 86.648,318.900 85.543 L 320.200 83.534 322.545 83.792 C 323.835 83.934,325.219 84.255,325.620 84.505 M125.953 124.466 C 125.051 124.870,124.006 125.200,123.632 125.200 C 122.211 125.200,120.541 127.467,119.841 130.346 C 118.431 136.145,120.167 140.390,124.465 141.659 C 125.419 141.941,126.438 142.403,126.729 142.686 C 127.420 143.358,129.144 143.318,130.400 142.600 C 130.950 142.286,131.813 142.022,132.317 142.014 C 135.801 141.960,139.789 134.442,138.056 131.195 C 137.647 130.428,137.173 129.350,137.004 128.800 C 135.821 124.967,129.964 122.670,125.953 124.466 M246.083 124.039 C 242.445 124.516,239.659 126.208,239.614 127.968 C 239.606 128.280,239.073 129.469,238.429 130.610 L 237.258 132.685 238.098 135.435 C 239.041 138.525,241.798 141.715,243.877 142.122 C 244.494 142.243,245.773 142.574,246.717 142.858 C 248.076 143.267,248.577 143.272,249.117 142.885 C 249.493 142.615,250.070 142.291,250.400 142.164 C 255.876 140.052,256.800 138.882,256.800 134.059 C 256.800 127.158,252.557 123.191,246.083 124.039 M5.908 124.823 C 5.087 125.256,4.018 126.149,3.533 126.805 C 2.862 127.713,2.332 128.000,1.325 128.000 C 0.119 128.000,0.000 128.108,0.000 129.200 C 0.000 131.194,2.425 130.950,3.838 128.814 C 7.110 123.870,14.943 124.059,18.076 129.158 C 19.816 131.992,18.975 139.534,16.912 139.587 C 16.274 139.604,13.074 141.249,12.744 141.730 C 11.902 142.961,6.681 141.060,4.264 138.643 C 1.827 136.206,0.000 136.016,0.000 138.200 C 0.000 139.544,0.059 139.600,1.457 139.600 C 2.597 139.600,3.358 139.979,4.957 141.342 C 7.553 143.555,11.257 144.430,13.172 143.283 C 20.185 139.082,20.058 139.250,20.122 134.075 C 20.194 128.327,18.968 126.373,14.250 124.711 C 11.543 123.758,7.831 123.808,5.908 124.823 M370.355 124.707 C 366.169 125.999,364.991 128.079,365.053 134.067 C 365.107 139.253,365.651 140.138,370.182 142.414 L 373.545 144.104 376.173 143.392 C 377.618 143.001,378.800 142.528,378.800 142.341 C 378.800 142.153,378.974 142.000,379.187 142.000 C 382.089 142.000,385.324 133.663,383.544 130.770 C 382.915 129.748,382.400 128.689,382.400 128.418 C 382.400 125.175,375.612 123.083,370.355 124.707 M131.974 125.455 C 134.698 126.000,137.444 131.455,136.389 134.228 C 136.175 134.791,136.000 135.759,136.000 136.379 C 136.000 140.821,125.766 142.629,121.919 138.866 C 120.108 137.094,120.518 129.374,122.532 127.324 C 123.900 125.932,129.156 124.891,131.974 125.455 M250.286 125.844 C 254.064 127.452,254.174 127.546,254.900 129.746 C 256.817 135.560,255.568 139.035,251.104 140.311 C 242.507 142.769,237.990 138.166,240.491 129.494 C 241.604 125.636,245.973 124.008,250.286 125.844 M376.668 125.455 C 378.922 125.726,381.202 127.348,381.198 128.677 C 381.197 129.075,381.498 130.243,381.868 131.274 C 382.774 133.803,382.100 137.066,380.256 139.078 C 378.506 140.988,373.305 142.741,372.630 141.649 C 372.511 141.456,371.646 141.103,370.707 140.865 C 367.815 140.131,366.543 138.603,366.300 135.571 C 365.683 127.886,369.105 124.547,376.668 125.455 M38.062 249.715 C 32.265 250.827,30.623 257.659,35.178 261.718 C 35.846 262.313,36.800 262.806,37.297 262.813 C 37.793 262.820,38.549 263.090,38.976 263.413 C 40.247 264.374,69.750 264.261,72.800 263.283 C 77.483 261.782,79.059 259.772,78.616 255.863 C 78.131 251.571,77.058 250.458,72.618 249.637 C 69.606 249.080,41.036 249.145,38.062 249.715 M182.600 249.797 C 182.380 249.870,181.693 250.042,181.072 250.180 C 177.791 250.906,176.776 254.811,177.409 264.273 C 177.711 268.778,178.249 270.704,179.959 273.400 C 181.564 275.930,182.400 277.553,182.400 278.137 C 182.400 278.434,183.026 279.290,183.790 280.039 C 184.555 280.787,185.410 281.637,185.690 281.927 C 188.844 285.188,189.772 286.000,190.348 286.000 C 190.718 286.000,191.565 286.496,192.228 287.102 C 195.329 289.934,201.172 290.992,208.123 289.982 C 210.908 289.577,213.986 288.495,213.995 287.918 C 213.998 287.763,215.305 286.870,216.900 285.934 C 220.067 284.076,220.851 283.373,222.823 280.628 C 223.545 279.622,224.270 278.800,224.433 278.800 C 225.191 278.800,227.270 274.461,228.168 271.008 C 228.714 268.907,229.269 267.012,229.401 266.798 C 232.426 261.905,230.623 252.788,226.138 250.300 C 224.992 249.664,184.404 249.195,182.600 249.797 M75.488 251.589 C 77.694 253.051,78.145 257.628,76.287 259.691 C 74.423 261.762,72.432 261.983,55.600 261.989 C 42.180 261.994,37.591 261.690,35.951 260.687 C 32.487 258.569,33.660 251.729,37.600 251.072 C 40.663 250.560,74.637 251.024,75.488 251.589 M225.949 251.735 C 228.416 253.361,229.601 259.954,228.215 264.346 C 227.894 265.366,227.418 267.550,227.159 269.200 C 226.581 272.874,225.541 275.416,224.059 276.773 C 223.443 277.338,222.357 278.657,221.647 279.705 C 220.061 282.043,218.864 283.177,216.905 284.195 C 216.077 284.625,214.410 285.722,213.200 286.632 C 208.328 290.297,199.030 290.155,193.635 286.334 C 192.444 285.490,191.164 284.800,190.791 284.800 C 190.418 284.800,189.502 284.139,188.756 283.332 C 188.010 282.525,186.659 281.120,185.753 280.211 C 184.302 278.753,182.400 275.405,182.400 274.307 C 182.400 274.091,181.905 273.259,181.300 272.458 C 178.687 268.995,178.654 268.853,178.626 260.939 L 178.600 253.653 179.754 252.448 C 181.267 250.869,180.246 250.934,204.000 250.887 L 224.600 250.846 225.949 251.735 M342.200 260.202 C 339.796 260.819,336.834 261.884,336.235 262.346 C 334.080 264.007,317.755 263.838,315.517 262.132 C 314.239 261.158,311.128 260.395,308.050 260.301 L 304.718 260.200 303.548 261.598 C 302.905 262.367,302.198 263.664,301.978 264.481 C 301.758 265.298,301.403 266.074,301.189 266.207 C 300.732 266.489,300.658 268.800,301.106 268.800 C 301.274 268.800,301.844 269.712,302.373 270.827 C 303.354 272.891,305.690 275.203,306.791 275.197 C 307.126 275.195,308.570 275.459,310.000 275.783 C 316.678 277.297,327.513 277.983,332.200 277.189 C 333.520 276.965,336.130 276.614,338.000 276.409 C 344.448 275.703,346.278 275.100,348.223 273.041 C 349.179 272.028,350.150 271.200,350.381 271.200 C 350.611 271.200,350.800 270.952,350.800 270.649 C 350.800 270.346,351.070 269.874,351.400 269.600 C 353.914 267.514,347.910 258.980,344.400 259.650 C 344.290 259.671,343.300 259.920,342.200 260.202 M191.869 260.788 C 188.785 261.385,187.325 265.476,189.027 268.755 C 190.554 271.697,194.404 276.350,195.342 276.387 C 195.531 276.394,196.389 276.958,197.250 277.640 C 199.097 279.102,203.966 279.969,206.119 279.219 C 206.779 278.988,207.741 278.800,208.255 278.800 C 208.804 278.800,210.080 278.014,211.339 276.900 C 212.520 275.855,214.097 274.530,214.843 273.956 C 218.190 271.380,219.063 262.942,216.159 261.229 C 214.685 260.359,195.855 260.017,191.869 260.788 M348.135 263.400 C 348.827 264.280,349.709 265.349,350.096 265.775 C 352.061 267.940,347.691 273.050,342.765 274.349 C 335.652 276.225,315.294 276.195,309.000 274.299 C 305.640 273.287,305.065 272.805,303.628 269.789 L 302.520 267.466 303.459 264.878 C 303.975 263.455,304.713 262.046,305.099 261.748 C 306.371 260.765,312.001 261.829,314.000 263.431 C 316.890 265.747,334.628 265.328,339.600 262.827 C 345.070 260.075,345.548 260.107,348.135 263.400 M215.414 262.246 C 218.024 263.956,216.301 271.532,212.774 273.853 C 211.578 274.639,210.489 275.461,210.354 275.678 C 210.124 276.047,208.703 276.966,207.800 277.330 C 204.945 278.480,200.196 278.196,198.792 276.792 C 198.318 276.318,197.322 275.676,196.579 275.366 C 195.040 274.723,192.802 272.680,192.796 271.913 C 192.794 271.631,192.164 270.610,191.396 269.644 C 189.958 267.834,189.567 265.460,190.367 263.400 C 191.055 261.631,212.937 260.623,215.414 262.246 M39.200 271.800 C 38.650 272.114,37.927 272.378,37.593 272.386 C 33.182 272.489,31.030 280.630,34.497 284.097 C 36.513 286.113,71.109 286.998,75.241 285.139 C 79.458 283.241,79.979 274.663,75.955 273.386 C 75.540 273.254,75.200 272.978,75.200 272.773 C 75.200 272.568,74.862 272.400,74.449 272.400 C 74.036 272.400,73.051 272.130,72.262 271.800 C 70.186 270.933,40.717 270.933,39.200 271.800 M72.080 273.640 C 76.297 274.294,77.736 275.912,77.357 279.575 C 76.841 284.569,76.950 284.541,57.600 284.721 C 35.772 284.925,34.839 284.730,34.067 279.807 C 33.688 277.388,33.797 276.400,34.443 276.400 C 34.639 276.400,34.800 276.169,34.800 275.886 C 34.800 275.054,36.991 274.001,39.482 273.637 C 42.994 273.123,68.765 273.125,72.080 273.640 " stroke="none" fill="#fcc298" fill-rule="evenodd"></path><path id="path2" d="M0.000 62.600 L 0.000 125.200 1.557 125.200 C 2.493 125.200,3.197 124.985,3.321 124.662 C 3.518 124.148,7.103 122.888,10.681 122.076 C 12.096 121.755,12.463 121.807,13.006 122.406 C 13.360 122.797,14.493 123.330,15.525 123.589 C 18.558 124.351,19.866 125.377,20.537 127.516 C 22.405 133.482,21.368 141.410,18.650 141.934 C 17.899 142.078,16.407 143.376,16.390 143.900 C 16.313 146.246,4.400 145.991,4.400 143.643 C 4.400 142.782,2.656 141.600,1.384 141.600 L 0.000 141.600 0.000 270.800 L 0.000 400.000 200.000 400.000 L 400.000 400.000 400.000 200.000 L 400.000 0.000 200.000 0.000 L 0.000 0.000 0.000 62.600 M66.655 81.926 C 67.534 82.558,70.000 86.954,70.000 87.889 C 70.000 88.123,70.225 88.404,70.500 88.513 C 71.478 88.902,73.600 94.412,73.600 96.564 C 73.600 98.505,74.930 103.805,75.616 104.600 C 77.203 106.439,78.158 109.596,79.179 116.389 C 79.427 118.042,79.935 119.741,80.314 120.189 C 81.867 122.025,83.244 126.471,83.764 131.330 C 84.018 133.700,84.576 135.222,86.003 137.438 C 86.876 138.792,88.400 144.266,88.400 146.044 C 88.400 147.457,89.487 151.676,89.927 151.975 C 90.426 152.313,91.912 155.260,92.158 156.400 C 92.631 158.589,93.188 161.537,93.632 164.200 C 93.889 165.740,94.414 167.360,94.799 167.800 C 96.294 169.507,97.151 172.151,97.977 177.600 C 98.543 181.343,99.135 183.600,99.549 183.600 C 100.642 183.600,102.392 189.194,103.218 195.328 C 103.420 196.828,103.924 198.538,104.339 199.128 C 106.323 201.950,107.191 204.832,108.036 211.400 C 108.345 213.807,108.676 214.848,109.369 215.600 C 111.786 218.222,111.925 224.864,109.600 226.652 C 108.222 227.711,106.800 229.189,106.800 229.561 C 106.800 229.780,106.139 230.463,105.331 231.080 L 103.863 232.200 72.231 232.322 C 35.836 232.462,36.856 232.541,34.131 229.344 C 30.198 224.730,30.574 216.289,34.769 215.000 C 35.302 214.836,36.097 214.368,36.535 213.960 C 38.508 212.122,40.164 212.000,63.108 212.000 C 84.686 212.000,84.692 212.000,85.846 211.126 C 86.481 210.645,87.066 210.204,87.146 210.146 C 87.227 210.088,87.074 209.447,86.807 208.720 C 86.241 207.179,84.811 199.485,84.804 197.943 C 84.802 197.361,84.549 196.789,84.243 196.672 C 82.826 196.128,80.994 190.151,80.114 183.200 C 79.971 182.073,79.492 180.947,78.833 180.189 C 77.451 178.599,75.200 170.170,75.200 166.587 C 75.200 165.886,74.911 165.208,74.500 164.945 C 73.311 164.185,71.200 158.846,71.200 156.597 C 71.200 154.347,69.855 149.424,68.814 147.866 C 67.716 146.223,67.049 143.874,65.784 137.200 C 65.362 134.975,64.771 133.260,64.073 132.239 C 62.869 130.476,62.150 128.197,61.601 124.400 C 61.024 120.419,60.291 117.957,59.157 116.200 C 58.590 115.320,58.018 114.150,57.886 113.600 C 57.755 113.050,57.468 111.880,57.248 111.000 C 57.029 110.120,56.554 107.813,56.194 105.873 C 55.791 103.702,55.176 101.811,54.594 100.953 C 52.699 98.160,51.456 91.225,52.169 87.422 C 52.487 85.728,56.474 81.395,58.013 81.070 C 59.964 80.659,65.680 81.225,66.655 81.926 M206.757 81.838 C 207.726 82.411,208.700 84.229,209.416 86.800 C 209.569 87.350,209.952 88.094,210.267 88.453 C 210.828 89.093,210.682 90.871,209.993 91.800 C 209.829 92.020,209.492 93.962,209.242 96.115 C 208.507 102.467,207.402 106.375,205.822 108.214 C 204.867 109.325,204.400 110.820,204.400 112.766 C 204.400 113.352,204.151 114.815,203.847 116.016 C 203.544 117.217,203.181 118.845,203.042 119.633 C 202.903 120.421,202.144 122.131,201.357 123.433 C 200.437 124.952,199.788 126.660,199.544 128.200 C 198.495 134.823,197.320 138.803,196.118 139.800 C 195.396 140.399,194.906 141.979,194.619 144.626 C 194.052 149.874,192.524 154.856,191.169 155.874 C 190.614 156.292,189.978 158.946,189.463 163.000 C 189.037 166.350,187.543 170.574,186.490 171.402 C 185.882 171.881,184.810 175.703,184.808 177.400 C 184.805 180.171,182.865 186.448,181.718 187.400 C 181.006 187.991,180.511 189.557,180.193 192.226 C 179.743 196.014,178.519 200.733,177.628 202.121 C 175.585 205.302,174.644 209.415,175.566 211.137 L 176.028 212.000 198.114 212.008 C 222.007 212.017,224.927 212.195,226.200 213.726 C 226.640 214.255,227.875 215.192,228.945 215.808 C 233.561 218.468,233.875 225.784,229.473 228.138 C 228.715 228.543,227.900 229.301,227.663 229.821 C 226.456 232.470,227.410 232.400,192.424 232.400 C 157.782 232.400,158.769 232.465,156.376 230.038 C 155.813 229.467,155.003 228.803,154.576 228.563 C 151.352 226.748,152.160 211.759,155.736 207.041 C 156.679 205.796,158.000 200.938,158.000 198.713 C 158.000 196.816,159.582 192.130,160.562 191.122 C 161.449 190.210,162.794 185.274,162.805 182.889 C 162.815 180.835,164.774 175.451,165.773 174.731 C 166.281 174.365,167.099 171.116,167.418 168.200 C 167.775 164.928,169.027 160.904,170.148 159.424 C 171.088 158.185,172.400 153.321,172.400 151.079 C 172.400 149.134,174.020 144.863,175.262 143.533 C 175.888 142.864,176.400 141.872,176.400 141.330 C 176.400 137.649,178.510 129.596,179.998 127.600 C 180.824 126.492,181.189 125.240,181.747 121.600 C 182.578 116.182,183.298 113.910,184.787 111.999 C 185.507 111.075,185.956 109.916,186.105 108.599 C 186.768 102.730,188.274 97.464,189.689 96.072 C 190.444 95.329,190.786 94.570,190.806 93.600 C 190.867 90.514,192.744 84.800,193.696 84.800 C 194.032 84.800,195.600 83.317,195.600 83.000 C 195.600 80.980,203.850 80.121,206.757 81.838 M328.136 82.093 C 328.642 82.639,329.301 83.679,329.602 84.405 C 329.903 85.131,330.655 86.243,331.274 86.876 C 332.446 88.075,332.527 88.368,332.402 90.988 C 332.325 92.606,331.057 95.600,330.449 95.600 C 330.265 95.600,329.997 96.722,329.853 98.094 C 329.223 104.127,327.739 109.302,326.147 111.020 C 325.585 111.625,325.200 112.533,325.200 113.250 C 325.200 116.586,322.623 125.365,321.193 126.899 C 320.774 127.349,320.321 128.546,320.186 129.559 C 319.927 131.505,319.443 134.222,318.826 137.200 C 318.343 139.530,317.298 142.000,316.795 142.000 C 316.578 142.000,316.400 142.255,316.400 142.567 C 316.400 142.878,316.217 143.194,315.993 143.269 C 315.769 143.344,315.408 144.969,315.191 146.881 C 314.974 148.793,314.617 150.829,314.398 151.405 C 314.179 151.981,314.000 152.799,314.000 153.222 C 314.000 154.209,312.354 158.000,311.925 158.000 C 311.746 158.000,311.600 158.255,311.600 158.567 C 311.600 158.878,311.416 159.195,311.191 159.270 C 310.967 159.344,310.630 160.754,310.442 162.403 C 309.872 167.420,308.304 172.680,306.940 174.151 C 306.227 174.921,305.885 175.926,305.602 178.092 C 304.829 184.008,303.303 189.600,302.462 189.600 C 301.815 189.600,301.171 191.464,300.596 195.000 C 299.600 201.125,298.914 203.575,297.778 205.064 C 296.362 206.921,295.581 209.516,296.097 210.651 C 296.678 211.928,297.969 211.998,321.356 212.017 C 344.610 212.036,345.374 212.093,347.268 213.945 C 347.974 214.635,348.805 215.200,349.114 215.200 C 349.424 215.200,350.175 215.494,350.784 215.854 C 354.534 218.069,353.933 228.794,350.059 228.801 C 349.696 228.802,349.065 229.303,348.655 229.915 C 346.946 232.465,347.860 232.402,312.996 232.383 L 281.400 232.365 279.800 231.456 C 278.920 230.956,278.022 230.153,277.805 229.673 C 277.575 229.164,277.047 228.800,276.541 228.800 C 272.501 228.800,272.372 214.787,276.365 209.607 C 277.258 208.447,277.575 207.356,278.167 203.400 C 279.036 197.597,279.793 195.204,281.277 193.580 C 282.022 192.765,282.400 191.916,282.400 191.059 C 282.400 190.349,282.670 188.731,283.000 187.465 C 283.330 186.198,283.599 184.675,283.598 184.080 C 283.595 182.378,284.894 179.114,286.097 177.800 C 286.779 177.055,287.197 176.148,287.198 175.409 C 287.204 171.859,289.328 163.884,290.770 162.000 C 291.633 160.872,291.980 159.706,292.553 156.000 C 293.398 150.529,294.205 147.894,295.615 146.000 C 296.627 144.641,296.856 143.693,298.018 136.047 C 298.198 134.863,298.538 133.702,298.773 133.467 C 299.008 133.232,299.200 132.757,299.200 132.411 C 299.200 132.065,299.742 131.125,300.403 130.322 C 301.224 129.327,301.682 128.248,301.844 126.931 C 302.616 120.643,304.031 115.750,305.544 114.144 C 306.103 113.550,306.485 112.300,306.791 110.069 C 307.737 103.159,308.617 100.210,310.285 98.368 C 310.992 97.587,311.315 96.564,311.613 94.168 C 312.268 88.889,312.875 87.220,314.739 85.565 C 315.653 84.754,316.400 83.832,316.400 83.515 C 316.400 80.841,325.908 79.689,328.136 82.093 M130.104 122.370 C 131.037 122.794,132.554 123.258,133.475 123.401 C 134.926 123.627,137.200 125.091,137.200 125.800 C 137.200 125.931,137.646 126.452,138.192 126.958 C 141.539 130.059,141.600 137.886,138.293 139.951 C 137.582 140.395,136.297 141.573,135.438 142.569 C 132.300 146.204,126.288 146.483,123.123 143.138 C 122.530 142.512,121.781 142.000,121.458 142.000 C 120.301 142.000,118.911 139.748,118.617 137.396 C 118.462 136.153,118.098 134.574,117.810 133.888 C 117.350 132.794,117.379 132.464,118.042 131.226 C 118.459 130.448,118.800 129.386,118.800 128.866 C 118.800 126.261,121.096 123.931,124.115 123.475 C 124.947 123.349,126.117 122.881,126.715 122.435 C 128.059 121.432,128.040 121.432,130.104 122.370 M249.605 122.403 C 250.225 122.845,251.333 123.319,252.066 123.456 C 255.418 124.082,258.000 127.379,258.000 131.031 C 258.000 131.199,258.288 131.655,258.640 132.044 C 259.226 132.692,259.226 132.827,258.640 133.665 C 258.288 134.167,258.000 135.072,258.000 135.675 C 258.000 138.273,256.038 142.000,254.670 142.000 C 254.378 142.000,253.703 142.465,253.170 143.034 C 250.422 145.965,243.584 146.235,241.643 143.490 C 241.140 142.778,240.463 142.118,237.171 139.133 C 233.182 135.516,237.068 124.251,242.589 123.423 C 243.618 123.268,245.211 122.808,246.130 122.399 C 248.264 121.450,248.266 121.450,249.605 122.403 M375.072 122.080 C 375.802 122.345,376.400 122.684,376.400 122.834 C 376.400 122.985,377.433 123.237,378.696 123.395 C 380.845 123.663,383.175 125.161,383.209 126.296 C 383.214 126.463,383.829 127.278,384.575 128.106 C 387.437 131.282,387.078 137.132,383.833 140.200 C 382.670 141.300,381.497 142.620,381.227 143.134 C 379.995 145.477,373.325 146.457,369.728 144.823 C 367.353 143.745,364.000 139.870,364.000 138.203 C 364.000 137.925,363.753 137.493,363.451 137.243 C 363.150 136.992,362.797 136.205,362.667 135.494 C 362.537 134.782,362.324 133.835,362.192 133.390 C 362.041 132.876,362.318 132.043,362.949 131.113 C 363.497 130.306,364.249 128.679,364.622 127.497 C 365.410 124.998,366.817 123.839,369.554 123.433 C 370.518 123.290,371.758 122.819,372.308 122.387 C 373.487 121.459,373.384 121.470,375.072 122.080 M73.936 248.530 C 78.035 249.371,78.241 249.573,79.823 254.297 C 81.011 257.847,81.052 258.148,80.431 258.769 C 80.065 259.135,79.543 259.972,79.271 260.629 C 78.222 263.161,75.965 265.152,73.643 265.592 C 70.506 266.187,40.221 266.129,37.596 265.523 C 33.245 264.519,30.838 260.052,31.742 254.660 C 32.507 250.095,33.097 249.427,36.943 248.767 C 38.514 248.497,40.070 248.127,40.400 247.945 C 41.607 247.278,70.276 247.778,73.936 248.530 M226.400 248.934 C 231.590 250.371,232.394 251.770,232.397 259.374 C 232.400 266.254,231.770 269.305,229.942 271.262 C 229.314 271.935,228.800 272.877,228.800 273.358 C 228.800 275.942,226.618 280.059,224.829 280.851 C 224.054 281.194,223.538 281.774,223.384 282.472 C 223.086 283.828,220.914 286.000,219.856 286.000 C 218.985 286.000,217.607 287.070,217.587 287.762 C 217.461 292.170,195.330 292.694,190.634 288.401 C 189.735 287.579,188.424 286.613,187.720 286.254 C 187.016 285.894,186.296 285.358,186.120 285.063 C 185.944 284.768,185.305 284.207,184.700 283.817 C 184.095 283.427,183.600 282.859,183.600 282.554 C 183.600 282.249,183.438 282.000,183.240 282.000 C 182.693 282.000,181.200 279.274,181.200 278.275 C 181.200 277.701,180.817 277.224,180.100 276.903 C 178.316 276.104,176.428 270.552,176.392 266.000 C 176.382 264.710,176.132 263.479,175.787 263.024 C 174.970 261.943,174.980 257.081,175.800 256.400 C 176.171 256.092,176.400 255.214,176.400 254.098 C 176.400 250.756,177.798 249.404,182.000 248.681 C 184.638 248.227,224.670 248.455,226.400 248.934 M316.000 259.809 C 323.795 261.448,330.043 261.422,336.600 259.722 C 340.791 258.635,347.431 258.788,349.575 260.020 C 356.345 263.910,353.530 275.077,345.449 276.392 C 342.504 276.871,340.077 277.552,339.817 277.972 C 338.761 279.682,321.644 280.911,316.800 279.626 C 313.992 278.880,313.381 278.650,312.400 277.969 C 311.850 277.587,310.140 277.057,308.600 276.791 C 304.159 276.025,302.000 275.027,302.000 273.741 C 302.000 273.447,301.441 272.710,300.759 272.103 C 297.852 269.519,297.459 264.945,299.983 263.070 C 300.331 262.812,301.204 261.846,301.922 260.924 C 302.865 259.715,303.587 259.202,304.514 259.080 C 306.622 258.804,313.211 259.222,316.000 259.809 M194.900 263.865 C 194.625 263.976,194.400 264.322,194.400 264.633 C 194.400 264.945,194.238 265.200,194.039 265.200 C 193.109 265.200,192.879 267.491,193.640 269.189 C 194.058 270.123,194.400 271.224,194.400 271.634 C 194.400 272.529,195.706 273.412,197.523 273.746 C 198.251 273.880,199.119 274.262,199.452 274.595 C 199.785 274.928,200.663 275.200,201.403 275.200 C 202.142 275.200,203.232 275.384,203.823 275.609 C 204.450 275.847,205.085 275.871,205.349 275.665 C 205.597 275.471,206.700 274.982,207.800 274.577 C 210.423 273.613,212.267 272.407,212.756 271.335 C 212.973 270.859,213.503 270.358,213.932 270.221 C 215.284 269.793,215.751 265.408,214.571 264.229 C 213.955 263.612,196.334 263.286,194.900 263.865 M73.929 269.776 C 76.235 270.390,77.487 271.510,78.873 274.200 C 79.327 275.080,80.030 276.116,80.435 276.502 C 81.150 277.184,81.150 277.265,80.426 279.302 C 80.017 280.456,79.455 282.162,79.179 283.094 C 78.029 286.966,75.651 287.400,55.600 287.400 C 32.994 287.400,32.627 287.272,31.396 278.974 C 30.880 275.495,34.032 270.695,37.433 269.782 C 40.376 268.992,70.964 268.987,73.929 269.776 " stroke="none" fill="#fcfcfb" fill-rule="evenodd"></path><path id="path3" d="M58.662 84.331 C 58.298 84.734,58.000 85.165,58.000 85.290 C 58.000 85.414,57.207 86.355,56.238 87.381 L 54.477 89.246 55.252 91.523 C 55.679 92.775,56.185 94.160,56.377 94.600 C 57.141 96.356,58.000 100.358,58.000 102.166 C 58.000 103.867,58.575 105.805,59.614 107.600 C 61.263 110.451,62.361 113.661,62.649 116.471 C 62.924 119.159,63.757 121.935,65.208 125.000 C 66.568 127.873,67.596 131.286,67.611 132.973 C 67.634 135.750,69.902 142.000,70.886 142.000 C 71.059 142.000,71.202 142.405,71.204 142.900 C 71.207 143.395,71.477 144.684,71.804 145.764 C 72.132 146.844,72.400 148.505,72.400 149.455 C 72.400 151.071,73.115 153.593,74.076 155.368 C 74.305 155.791,74.896 156.871,75.390 157.768 C 76.234 159.302,77.600 164.948,77.600 166.900 C 77.600 167.719,79.134 171.947,79.596 172.400 C 80.319 173.109,81.239 175.932,81.814 179.200 C 82.638 183.890,83.414 186.466,84.707 188.800 C 85.694 190.584,87.200 196.663,87.200 198.866 C 87.200 199.906,88.179 202.211,90.231 206.000 C 91.417 208.191,91.240 214.131,89.952 215.331 L 89.020 216.200 62.643 216.400 C 42.040 216.556,36.230 216.709,36.100 217.100 C 36.008 217.375,35.678 217.600,35.367 217.600 C 35.055 217.600,34.800 217.870,34.800 218.200 C 34.800 218.530,34.646 218.800,34.458 218.800 C 33.783 218.800,33.563 224.096,34.208 224.809 C 34.534 225.169,34.800 225.674,34.800 225.931 C 34.800 226.189,35.055 226.400,35.367 226.400 C 35.678 226.400,35.995 226.584,36.070 226.809 C 36.445 227.936,41.111 228.151,68.600 228.305 C 107.297 228.522,106.794 228.617,106.798 221.129 C 106.801 215.972,105.044 208.021,103.631 206.800 C 102.917 206.182,102.210 204.331,101.950 202.400 C 101.052 195.711,99.574 190.800,98.460 190.800 C 98.002 190.800,96.842 186.287,96.611 183.600 C 96.488 182.170,96.149 180.370,95.858 179.600 C 95.063 177.495,94.108 175.437,93.770 175.101 C 93.144 174.479,92.000 170.565,91.991 169.015 C 91.976 166.558,90.062 159.912,89.164 159.200 C 88.403 158.597,87.535 156.044,87.204 153.434 C 86.567 148.408,84.950 143.200,84.028 143.200 C 83.580 143.200,82.471 138.944,82.204 136.200 C 81.905 133.126,81.276 130.975,80.136 129.130 C 78.873 127.086,77.600 123.305,77.600 121.598 C 77.600 118.851,75.895 113.438,74.325 111.200 C 73.482 109.997,72.402 105.980,72.395 104.016 C 72.386 101.725,70.794 97.118,69.347 95.200 C 69.098 94.870,68.592 93.340,68.223 91.800 C 67.251 87.749,67.286 87.837,66.094 86.542 C 63.631 83.866,60.048 82.800,58.662 84.331 M198.662 84.331 C 198.298 84.734,198.000 85.184,198.000 85.332 C 198.000 85.480,197.243 86.336,196.317 87.234 C 194.275 89.216,193.785 90.469,192.736 96.390 C 192.223 99.287,191.575 101.574,190.980 102.590 C 189.205 105.618,188.533 107.401,188.262 109.800 C 187.702 114.748,186.453 118.948,185.227 120.000 C 184.797 120.368,183.596 124.188,183.591 125.200 C 183.581 127.383,182.115 133.090,181.176 134.600 C 179.909 136.638,179.003 139.605,178.182 144.400 C 177.803 146.613,177.071 149.119,176.430 150.400 C 174.164 154.925,173.600 156.467,173.600 158.127 C 173.600 161.019,171.849 166.778,170.713 167.618 C 170.196 168.000,168.800 172.855,168.800 174.270 C 168.800 176.457,167.552 180.848,166.375 182.800 C 165.322 184.546,164.667 186.884,163.442 193.265 C 163.118 194.951,162.426 197.021,161.902 197.865 C 160.707 199.793,159.200 204.399,159.200 206.124 C 159.200 208.591,157.129 215.181,156.349 215.195 C 155.597 215.209,154.302 220.135,154.513 222.179 C 155.137 228.229,154.733 228.159,189.800 228.312 C 223.197 228.458,224.042 228.403,226.618 225.912 L 228.389 224.200 228.094 221.620 C 227.816 219.179,227.706 218.968,226.069 217.720 L 224.338 216.400 200.020 216.400 C 176.281 216.400,175.657 216.380,173.826 215.570 L 171.950 214.741 172.235 211.476 C 172.392 209.680,172.763 207.629,173.060 206.918 C 173.357 206.207,173.604 204.945,173.610 204.113 C 173.626 201.606,174.353 199.195,176.277 195.266 C 177.671 192.417,178.194 190.804,178.479 188.466 C 178.875 185.220,180.257 180.003,180.723 179.995 C 181.557 179.982,182.922 175.261,183.604 170.030 C 183.820 168.381,184.506 166.300,185.518 164.230 C 187.293 160.596,187.996 158.191,188.393 154.400 C 188.543 152.970,188.858 151.440,189.092 151.000 C 191.789 145.941,192.718 143.345,193.030 140.000 C 193.260 137.533,194.559 132.840,195.133 132.403 C 196.256 131.549,197.362 127.856,197.962 122.959 C 198.288 120.299,198.785 118.956,200.901 115.007 C 201.740 113.441,201.895 112.815,202.932 106.800 C 203.432 103.894,204.072 102.043,205.005 100.800 C 207.236 97.828,208.133 90.395,206.621 87.407 C 204.973 84.150,200.419 82.390,198.662 84.331 M318.900 85.543 C 318.185 86.648,317.600 87.660,317.600 87.793 C 317.600 87.925,317.268 88.390,316.862 88.826 C 314.999 90.825,312.800 97.845,312.800 101.791 C 312.800 102.770,311.790 105.094,311.145 105.600 C 310.660 105.980,309.495 109.007,309.143 110.800 C 308.949 111.790,308.542 114.040,308.238 115.800 C 307.884 117.854,307.145 120.075,306.173 122.000 C 304.758 124.807,303.253 130.347,303.216 132.886 C 303.207 133.484,302.943 134.564,302.629 135.286 C 302.315 136.009,301.953 136.870,301.824 137.200 C 301.695 137.530,301.058 138.700,300.408 139.800 C 299.758 140.900,299.220 142.324,299.213 142.965 C 299.181 145.817,297.811 151.451,296.774 153.000 C 295.505 154.894,294.702 157.560,293.770 162.980 C 293.327 165.554,292.715 167.602,292.037 168.780 C 290.580 171.310,289.761 173.948,289.015 178.521 C 288.518 181.571,287.978 183.229,286.588 185.982 C 285.605 187.928,284.800 189.944,284.801 190.460 C 284.803 192.927,283.435 198.735,282.460 200.400 C 281.079 202.758,280.002 205.550,279.994 206.800 C 279.977 209.116,278.522 214.724,277.473 216.513 C 274.599 221.414,275.526 225.199,280.046 227.019 L 282.981 228.200 313.591 228.200 L 344.200 228.200 346.600 226.873 C 350.599 224.661,350.506 224.785,350.178 222.162 C 349.855 219.578,349.064 218.586,346.232 217.216 C 344.594 216.423,343.869 216.400,320.174 216.386 L 295.800 216.371 294.649 215.430 C 292.548 213.712,293.816 202.597,296.640 197.981 C 297.546 196.500,299.000 191.096,299.325 188.000 C 299.490 186.433,300.416 183.969,301.579 182.000 C 302.582 180.302,303.203 178.170,303.909 174.000 C 304.647 169.643,304.950 168.775,307.090 164.888 C 307.660 163.851,308.259 161.479,308.757 158.280 C 309.184 155.535,309.824 152.774,310.180 152.145 C 310.535 151.515,311.244 150.255,311.756 149.345 C 312.267 148.435,312.791 146.905,312.921 145.945 C 313.674 140.347,314.378 137.601,315.741 134.947 C 317.210 132.088,317.532 130.956,318.574 125.000 C 318.946 122.869,319.674 120.744,320.752 118.639 C 322.061 116.084,322.502 114.626,323.054 111.039 C 323.731 106.642,324.058 105.680,326.193 101.800 C 328.079 98.374,328.959 89.755,327.644 87.600 C 327.173 86.830,326.690 85.921,326.569 85.580 C 326.215 84.584,325.053 84.068,322.545 83.792 L 320.200 83.534 318.900 85.543 M63.554 87.337 C 65.679 87.752,66.400 88.897,66.400 91.853 C 66.400 94.690,67.244 97.207,68.768 98.918 C 70.352 100.696,71.199 103.430,71.200 106.765 C 71.200 110.717,72.188 113.797,73.890 115.155 C 74.611 115.730,75.200 116.427,75.200 116.705 C 75.200 116.983,75.372 117.523,75.583 117.905 C 75.793 118.287,76.081 120.715,76.222 123.299 C 76.497 128.331,77.169 130.134,79.088 130.985 C 80.157 131.460,80.237 131.786,80.807 138.000 C 81.341 143.832,81.660 144.854,83.400 146.317 C 84.804 147.497,84.820 147.561,85.760 155.400 C 86.298 159.891,87.256 162.374,88.762 163.180 C 89.666 163.663,90.316 166.551,90.638 171.519 C 90.924 175.919,91.673 177.780,93.481 178.582 C 94.614 179.086,95.099 181.105,95.405 186.600 C 95.665 191.259,96.663 193.830,98.387 194.281 C 99.145 194.479,99.106 194.300,100.230 202.799 C 100.838 207.402,101.297 208.616,103.057 210.274 C 104.243 211.391,104.683 213.434,105.023 219.400 C 105.433 226.609,109.775 225.800,70.658 225.800 C 32.554 225.800,35.472 226.108,35.280 222.061 C 35.094 218.133,32.576 218.480,62.524 218.308 C 83.060 218.190,89.294 218.039,90.312 217.635 C 94.006 216.166,94.024 205.037,90.337 201.632 L 88.786 200.200 88.393 195.600 C 87.866 189.433,87.343 187.558,85.538 185.374 C 83.960 183.465,83.769 182.810,83.445 178.200 C 83.107 173.400,82.433 171.319,80.579 169.356 L 78.915 167.594 78.697 163.497 C 78.394 157.777,77.847 155.932,75.895 154.037 C 74.085 152.280,73.665 150.742,73.624 145.708 C 73.596 142.343,72.767 139.822,71.221 138.400 C 69.841 137.131,68.800 133.460,68.800 129.864 C 68.800 126.744,67.683 123.144,66.316 121.861 C 64.756 120.397,64.062 118.102,63.879 113.800 C 63.696 109.480,62.953 107.231,61.443 106.423 C 59.739 105.511,59.200 103.836,59.200 99.452 C 59.200 97.112,58.944 94.384,58.600 93.065 C 58.270 91.798,58.000 90.314,58.000 89.768 C 58.000 89.222,58.270 88.671,58.600 88.545 C 58.930 88.418,59.200 88.123,59.200 87.889 C 59.200 86.792,60.503 85.976,61.365 86.532 C 61.824 86.829,62.809 87.191,63.554 87.337 M203.224 87.198 C 206.284 87.205,207.282 94.543,204.546 96.922 C 202.757 98.477,202.095 100.072,201.606 104.000 C 200.626 111.886,200.514 112.339,199.266 113.505 C 197.534 115.122,196.939 116.636,196.635 120.200 C 196.085 126.636,195.578 128.767,194.439 129.441 C 192.744 130.442,192.049 132.526,191.782 137.400 C 191.507 142.413,191.119 143.788,189.580 145.200 C 187.885 146.756,187.320 148.307,187.032 152.200 C 186.662 157.192,186.041 159.614,184.825 160.800 C 183.247 162.340,182.718 163.843,182.152 168.400 C 181.174 176.276,181.193 176.198,180.051 176.966 C 178.309 178.136,177.647 180.139,177.394 185.000 C 177.109 190.476,176.660 192.074,175.154 192.964 C 173.236 194.096,172.658 195.713,172.493 200.400 C 172.352 204.418,171.491 207.995,170.664 207.999 C 169.576 208.003,168.826 209.900,168.813 212.680 C 168.787 218.323,169.217 218.400,200.928 218.400 C 219.469 218.400,224.789 218.510,225.099 218.900 C 226.197 220.283,226.077 224.256,224.914 225.045 C 223.390 226.078,162.209 226.198,158.400 225.175 L 156.200 224.585 156.078 222.209 C 155.911 218.978,156.188 218.146,157.778 217.104 C 159.595 215.913,160.400 213.381,160.400 208.858 C 160.400 205.415,161.289 202.021,162.200 201.989 C 163.542 201.942,165.200 197.231,165.200 193.464 C 165.200 190.112,166.248 186.476,167.505 185.463 C 168.985 184.271,169.684 182.073,170.009 177.600 C 170.409 172.079,170.893 170.395,172.358 169.420 C 173.941 168.367,174.788 165.596,175.053 160.600 C 175.274 156.440,175.769 154.400,176.560 154.400 C 178.163 154.400,179.511 150.491,179.869 144.800 C 180.110 140.984,180.744 138.950,181.821 138.537 C 182.139 138.414,182.400 138.064,182.400 137.757 C 182.400 137.451,182.567 137.200,182.772 137.200 C 183.413 137.200,184.369 133.101,184.786 128.564 C 185.244 123.571,185.504 122.400,186.158 122.400 C 187.876 122.400,189.172 118.508,189.488 112.400 L 189.725 107.800 191.343 106.318 C 193.301 104.524,193.918 102.699,194.225 97.800 C 194.532 92.916,194.612 92.632,196.189 90.907 C 199.095 87.728,200.000 86.646,200.000 86.352 C 200.000 86.184,200.495 86.306,201.100 86.621 C 201.705 86.937,202.661 87.196,203.224 87.198 M325.900 87.922 C 327.351 89.752,326.239 100.027,324.518 100.686 C 322.735 101.369,321.598 105.402,321.599 111.040 C 321.600 113.662,320.998 115.359,319.849 115.974 C 318.018 116.954,317.466 118.933,316.576 127.696 C 316.390 129.538,316.069 130.321,314.955 131.654 C 312.769 134.270,312.885 133.833,311.635 144.192 C 311.410 146.063,311.046 147.451,310.757 147.548 C 308.466 148.311,307.784 150.336,307.212 158.073 C 306.892 162.389,306.312 163.976,305.038 164.013 C 303.730 164.050,302.400 169.021,302.400 173.870 C 302.400 176.496,301.662 178.643,300.592 179.131 C 299.084 179.818,298.309 181.904,297.744 186.800 C 296.985 193.366,296.815 194.029,295.591 195.174 C 293.933 196.724,293.337 198.279,293.053 201.800 C 292.522 208.351,291.877 211.751,290.921 213.038 C 289.743 214.621,289.753 214.708,291.274 216.066 C 293.616 218.157,293.620 218.157,320.400 218.386 C 348.064 218.623,346.800 218.488,346.800 221.210 C 346.800 222.269,346.904 223.404,347.030 223.734 C 347.188 224.146,346.781 224.563,345.730 225.067 C 343.327 226.218,283.604 226.199,280.700 225.046 L 278.800 224.291 278.800 221.769 C 278.800 220.382,278.968 219.143,279.174 219.016 C 279.748 218.661,280.723 214.895,280.990 212.000 C 281.633 205.015,281.556 205.303,283.206 203.703 C 285.032 201.932,285.991 198.247,286.013 192.917 C 286.025 189.962,286.515 188.411,287.444 188.393 C 289.122 188.361,290.800 182.988,290.800 177.650 C 290.800 174.944,290.849 174.808,292.537 172.831 C 294.507 170.522,295.117 168.487,295.601 162.600 C 295.948 158.380,296.135 157.815,297.740 156.140 C 299.308 154.504,299.872 152.494,300.460 146.450 C 300.725 143.727,301.135 141.346,301.371 141.160 C 304.065 139.027,304.086 138.994,304.625 135.981 C 304.918 134.342,305.167 131.902,305.179 130.560 C 305.206 127.469,305.775 125.831,307.020 125.264 C 307.559 125.018,308.000 124.558,308.000 124.242 C 308.000 123.926,308.186 123.605,308.414 123.529 C 308.784 123.405,309.164 121.342,310.376 112.874 C 310.606 111.265,311.009 110.104,311.488 109.674 C 313.618 107.760,315.200 101.755,315.200 95.582 C 315.200 94.755,315.699 93.945,317.000 92.663 C 317.990 91.687,318.800 90.519,318.800 90.068 C 318.800 89.616,318.991 89.129,319.225 88.985 C 319.458 88.840,319.808 88.306,320.001 87.797 C 320.431 86.666,324.980 86.762,325.900 87.922 M5.949 126.506 C 5.152 127.218,4.104 128.385,3.622 129.100 C 2.918 130.144,2.475 130.400,1.373 130.400 L 0.000 130.400 0.000 133.600 L 0.000 136.800 1.211 136.800 C 2.116 136.800,2.885 137.264,4.264 138.643 C 6.681 141.060,11.902 142.961,12.744 141.730 C 13.074 141.249,16.274 139.604,16.912 139.587 C 18.975 139.534,19.816 131.992,18.076 129.158 C 15.780 125.422,8.861 123.909,5.949 126.506 M125.200 126.077 C 122.429 127.048,122.244 127.248,121.234 130.360 C 118.981 137.306,122.580 141.489,130.301 140.896 C 133.276 140.667,136.000 138.508,136.000 136.379 C 136.000 135.759,136.175 134.791,136.389 134.228 C 136.964 132.718,135.702 128.174,134.324 126.790 C 132.546 125.004,129.045 124.730,125.200 126.077 M243.400 125.825 C 241.607 126.752,241.096 127.396,240.491 129.494 C 237.990 138.166,242.507 142.769,251.104 140.311 C 255.568 139.035,256.817 135.560,254.900 129.746 C 254.174 127.546,254.064 127.452,250.286 125.844 C 248.370 125.028,244.960 125.019,243.400 125.825 M370.800 125.966 C 364.433 128.028,364.362 139.255,370.707 140.865 C 371.646 141.103,372.511 141.456,372.630 141.649 C 373.305 142.741,378.506 140.988,380.256 139.078 C 382.100 137.066,382.774 133.803,381.868 131.274 C 381.498 130.243,381.197 129.075,381.198 128.677 C 381.202 127.348,378.922 125.726,376.668 125.455 C 373.803 125.111,373.303 125.155,370.800 125.966 M12.877 127.289 C 13.447 127.558,14.237 128.259,14.632 128.847 C 15.027 129.435,15.856 130.215,16.475 130.581 C 17.669 131.286,17.753 131.565,17.628 134.400 C 17.501 137.288,17.354 137.481,14.599 138.371 C 10.566 139.674,6.832 139.340,5.987 137.600 C 4.776 135.105,4.330 132.767,4.897 131.894 C 5.217 131.402,5.611 130.289,5.773 129.420 C 6.237 126.920,9.819 125.846,12.877 127.289 M133.109 127.300 C 134.343 128.817,134.402 137.613,133.183 138.451 C 132.452 138.954,123.665 138.552,122.982 137.985 C 121.460 136.722,122.181 130.604,123.993 129.400 C 124.656 128.960,125.198 128.412,125.199 128.183 C 125.202 127.076,132.284 126.286,133.109 127.300 M249.000 127.200 C 249.136 127.420,249.530 127.600,249.876 127.600 C 251.726 127.600,254.512 132.068,254.174 134.492 C 253.672 138.088,253.502 138.257,250.115 138.543 C 242.024 139.227,241.848 139.102,242.072 132.814 C 242.278 127.033,242.410 126.836,246.076 126.815 C 247.548 126.807,248.864 126.980,249.000 127.200 M378.894 127.559 C 380.158 128.716,380.366 137.145,379.158 138.238 C 378.065 139.227,370.924 139.329,369.000 138.383 C 366.966 137.382,367.490 128.800,369.586 128.800 C 369.814 128.800,370.000 128.530,370.000 128.200 C 370.000 127.814,370.392 127.598,371.100 127.594 C 371.705 127.591,372.470 127.408,372.800 127.188 C 373.424 126.772,378.363 127.072,378.894 127.559 M37.600 251.072 C 33.660 251.729,32.487 258.569,35.951 260.687 C 38.035 261.961,64.950 262.627,72.172 261.583 C 76.964 260.891,78.582 257.932,76.764 253.189 C 75.919 250.984,76.099 251.004,56.600 250.952 C 46.700 250.926,38.150 250.980,37.600 251.072 M182.154 251.085 C 181.441 251.175,180.416 251.757,179.754 252.448 L 178.600 253.653 178.626 260.939 C 178.654 268.853,178.687 268.995,181.300 272.458 C 181.905 273.259,182.400 274.091,182.400 274.307 C 182.400 275.405,184.302 278.753,185.753 280.211 C 186.659 281.120,188.010 282.525,188.756 283.332 C 189.502 284.139,190.418 284.800,190.791 284.800 C 191.164 284.800,192.444 285.490,193.635 286.334 C 199.030 290.155,208.328 290.297,213.200 286.632 C 214.410 285.722,216.077 284.625,216.905 284.195 C 218.864 283.177,220.061 282.043,221.647 279.705 C 222.357 278.657,223.443 277.338,224.059 276.773 C 225.541 275.416,226.581 272.874,227.159 269.200 C 227.418 267.550,227.894 265.366,228.215 264.346 C 229.601 259.954,228.416 253.361,225.949 251.735 L 224.600 250.846 204.000 250.887 C 192.670 250.910,182.840 250.999,182.154 251.085 M72.390 252.453 L 75.133 252.906 75.552 255.282 C 76.313 259.606,76.340 259.600,55.600 259.600 C 40.605 259.600,36.284 259.346,35.713 258.432 C 35.364 257.873,35.785 253.913,36.265 253.245 C 37.119 252.057,66.135 251.420,72.390 252.453 M224.928 252.720 C 225.948 253.848,226.180 258.558,225.594 266.275 L 225.065 273.254 223.336 274.444 C 222.385 275.098,221.496 276.076,221.360 276.617 C 221.224 277.158,220.983 277.600,220.824 277.600 C 220.665 277.600,220.296 278.047,220.004 278.593 C 219.711 279.140,219.144 279.691,218.744 279.818 C 218.344 279.945,217.727 280.538,217.374 281.137 C 216.664 282.339,214.736 283.600,213.610 283.600 C 212.719 283.600,210.400 285.702,210.400 286.510 C 210.400 287.114,209.326 287.324,203.511 287.859 C 200.431 288.142,198.745 287.648,197.200 286.010 C 195.733 284.455,194.414 283.752,192.484 283.498 C 190.448 283.230,189.667 282.656,188.925 280.882 C 188.586 280.071,187.688 279.150,186.587 278.485 C 185.105 277.590,184.800 277.200,184.802 276.203 C 184.806 273.895,183.521 271.232,181.675 269.719 L 179.926 268.286 180.063 260.976 C 180.138 256.955,180.329 253.537,180.486 253.380 C 182.008 251.860,223.591 251.243,224.928 252.720 M188.306 260.367 L 187.000 261.535 187.025 265.867 C 187.056 271.276,187.345 271.890,191.994 276.443 C 196.440 280.798,198.290 281.452,205.131 281.091 C 209.970 280.836,211.710 280.176,212.806 278.177 C 213.161 277.529,214.335 276.517,215.416 275.927 C 217.443 274.819,218.688 272.619,218.769 270.000 C 218.786 269.450,219.333 268.010,219.984 266.800 C 221.340 264.280,221.541 262.157,220.500 261.335 C 217.799 259.201,217.792 259.200,203.222 259.200 L 189.613 259.200 188.306 260.367 M216.159 261.229 C 219.063 262.942,218.190 271.380,214.843 273.956 C 214.097 274.530,212.520 275.855,211.339 276.900 C 210.080 278.014,208.804 278.800,208.255 278.800 C 207.741 278.800,206.779 278.988,206.119 279.219 C 203.966 279.969,199.097 279.102,197.250 277.640 C 196.389 276.958,195.531 276.394,195.342 276.387 C 194.404 276.350,190.554 271.697,189.027 268.755 C 187.325 265.476,188.785 261.385,191.869 260.788 C 195.855 260.017,214.685 260.359,216.159 261.229 M343.200 261.107 C 342.430 261.445,340.810 262.218,339.600 262.827 C 334.628 265.328,316.890 265.747,314.000 263.431 C 312.001 261.829,306.371 260.765,305.099 261.748 C 304.713 262.046,303.975 263.455,303.459 264.878 L 302.520 267.466 303.628 269.789 C 305.065 272.805,305.640 273.287,309.000 274.299 C 315.294 276.195,335.652 276.225,342.765 274.349 C 347.691 273.050,352.061 267.940,350.096 265.775 C 349.709 265.349,348.827 264.280,348.135 263.400 C 346.196 260.933,344.936 260.347,343.200 261.107 M345.499 262.500 C 345.717 262.775,346.125 263.720,346.404 264.600 C 346.684 265.480,347.158 266.344,347.457 266.520 C 348.282 267.006,348.108 267.911,347.057 268.600 C 346.538 268.939,345.806 269.899,345.431 270.732 C 344.257 273.334,342.406 273.600,325.448 273.600 C 309.767 273.600,309.712 273.592,307.005 271.000 C 305.298 269.366,304.644 267.661,305.182 266.248 C 305.412 265.643,305.600 264.704,305.600 264.161 C 305.600 262.965,306.579 262.501,307.515 263.255 C 310.908 265.989,314.014 266.471,327.296 266.327 C 340.186 266.187,339.950 266.230,342.454 263.554 C 343.962 261.942,344.820 261.645,345.499 262.500 M39.482 273.637 C 36.991 274.001,34.800 275.054,34.800 275.886 C 34.800 276.169,34.639 276.400,34.443 276.400 C 33.797 276.400,33.688 277.388,34.067 279.807 C 34.839 284.730,35.772 284.925,57.600 284.721 C 76.950 284.541,76.841 284.569,77.357 279.575 C 77.736 275.912,76.297 274.294,72.080 273.640 C 68.765 273.125,42.994 273.123,39.482 273.637 M75.182 276.604 C 75.984 277.406,76.007 280.694,75.220 281.968 C 74.450 283.213,45.259 283.825,38.872 282.730 L 36.129 282.259 35.711 279.830 C 34.980 275.582,34.585 275.655,57.689 275.739 C 73.828 275.798,74.405 275.826,75.182 276.604 " stroke="none" fill="#fca451" fill-rule="evenodd"></path><path id="path4" d="M58.013 81.070 C 56.474 81.395,52.487 85.728,52.169 87.422 C 51.456 91.225,52.699 98.160,54.594 100.953 C 55.176 101.811,55.791 103.702,56.194 105.873 C 56.554 107.813,57.029 110.120,57.248 111.000 C 57.468 111.880,57.755 113.050,57.886 113.600 C 58.018 114.150,58.590 115.320,59.157 116.200 C 60.291 117.957,61.024 120.419,61.601 124.400 C 62.150 128.197,62.869 130.476,64.073 132.239 C 64.771 133.260,65.362 134.975,65.784 137.200 C 67.049 143.874,67.716 146.223,68.814 147.866 C 69.855 149.424,71.200 154.347,71.200 156.597 C 71.200 158.846,73.311 164.185,74.500 164.945 C 74.911 165.208,75.200 165.886,75.200 166.587 C 75.200 170.170,77.451 178.599,78.833 180.189 C 79.492 180.947,79.971 182.073,80.114 183.200 C 80.994 190.151,82.826 196.128,84.243 196.672 C 84.549 196.789,84.802 197.361,84.804 197.943 C 84.811 199.485,86.241 207.179,86.807 208.720 C 87.074 209.447,87.227 210.088,87.146 210.146 C 87.066 210.204,86.481 210.645,85.846 211.126 C 84.692 212.000,84.686 212.000,63.108 212.000 C 40.164 212.000,38.508 212.122,36.535 213.960 C 36.097 214.368,35.302 214.836,34.769 215.000 C 30.574 216.289,30.198 224.730,34.131 229.344 C 36.856 232.541,35.836 232.462,72.231 232.322 L 103.863 232.200 105.331 231.080 C 106.139 230.463,106.800 229.780,106.800 229.561 C 106.800 229.189,108.222 227.711,109.600 226.652 C 111.925 224.864,111.786 218.222,109.369 215.600 C 108.676 214.848,108.345 213.807,108.036 211.400 C 107.191 204.832,106.323 201.950,104.339 199.128 C 103.924 198.538,103.420 196.828,103.218 195.328 C 102.392 189.194,100.642 183.600,99.549 183.600 C 99.135 183.600,98.543 181.343,97.977 177.600 C 97.151 172.151,96.294 169.507,94.799 167.800 C 94.414 167.360,93.889 165.740,93.632 164.200 C 93.188 161.537,92.631 158.589,92.158 156.400 C 91.912 155.260,90.426 152.313,89.927 151.975 C 89.487 151.676,88.400 147.457,88.400 146.044 C 88.400 144.266,86.876 138.792,86.003 137.438 C 84.576 135.222,84.018 133.700,83.764 131.330 C 83.244 126.471,81.867 122.025,80.314 120.189 C 79.935 119.741,79.427 118.042,79.179 116.389 C 78.158 109.596,77.203 106.439,75.616 104.600 C 74.930 103.805,73.600 98.505,73.600 96.564 C 73.600 94.412,71.478 88.902,70.500 88.513 C 70.225 88.404,70.000 88.123,70.000 87.889 C 70.000 86.954,67.534 82.558,66.655 81.926 C 65.680 81.225,59.964 80.659,58.013 81.070 M198.068 81.061 C 197.218 81.246,195.600 82.518,195.600 83.000 C 195.600 83.317,194.032 84.800,193.696 84.800 C 192.744 84.800,190.867 90.514,190.806 93.600 C 190.786 94.570,190.444 95.329,189.689 96.072 C 188.274 97.464,186.768 102.730,186.105 108.599 C 185.956 109.916,185.507 111.075,184.787 111.999 C 183.298 113.910,182.578 116.182,181.747 121.600 C 181.189 125.240,180.824 126.492,179.998 127.600 C 178.510 129.596,176.400 137.649,176.400 141.330 C 176.400 141.872,175.888 142.864,175.262 143.533 C 174.020 144.863,172.400 149.134,172.400 151.079 C 172.400 153.321,171.088 158.185,170.148 159.424 C 169.027 160.904,167.775 164.928,167.418 168.200 C 167.099 171.116,166.281 174.365,165.773 174.731 C 164.774 175.451,162.815 180.835,162.805 182.889 C 162.794 185.274,161.449 190.210,160.562 191.122 C 159.582 192.130,158.000 196.816,158.000 198.713 C 158.000 200.938,156.679 205.796,155.736 207.041 C 152.160 211.759,151.352 226.748,154.576 228.563 C 155.003 228.803,155.813 229.467,156.376 230.038 C 158.769 232.465,157.782 232.400,192.424 232.400 C 227.410 232.400,226.456 232.470,227.663 229.821 C 227.900 229.301,228.715 228.543,229.473 228.138 C 233.875 225.784,233.561 218.468,228.945 215.808 C 227.875 215.192,226.640 214.255,226.200 213.726 C 224.927 212.195,222.007 212.017,198.114 212.008 L 176.028 212.000 175.566 211.137 C 174.644 209.415,175.585 205.302,177.628 202.121 C 178.519 200.733,179.743 196.014,180.193 192.226 C 180.511 189.557,181.006 187.991,181.718 187.400 C 182.865 186.448,184.805 180.171,184.808 177.400 C 184.810 175.703,185.882 171.881,186.490 171.402 C 187.543 170.574,189.037 166.350,189.463 163.000 C 189.978 158.946,190.614 156.292,191.169 155.874 C 192.524 154.856,194.052 149.874,194.619 144.626 C 194.906 141.979,195.396 140.399,196.118 139.800 C 197.320 138.803,198.495 134.823,199.544 128.200 C 199.788 126.660,200.437 124.952,201.357 123.433 C 202.144 122.131,202.903 120.421,203.042 119.633 C 203.181 118.845,203.544 117.217,203.847 116.016 C 204.151 114.815,204.400 113.352,204.400 112.766 C 204.400 110.820,204.867 109.325,205.822 108.214 C 207.402 106.375,208.507 102.467,209.242 96.115 C 209.492 93.962,209.829 92.020,209.993 91.800 C 210.682 90.871,210.828 89.093,210.267 88.453 C 209.952 88.094,209.569 87.350,209.416 86.800 C 208.006 81.735,204.081 79.750,198.068 81.061 M319.200 81.065 C 318.001 81.311,316.400 82.713,316.400 83.515 C 316.400 83.832,315.653 84.754,314.739 85.565 C 312.875 87.220,312.268 88.889,311.613 94.168 C 311.315 96.564,310.992 97.587,310.285 98.368 C 308.617 100.210,307.737 103.159,306.791 110.069 C 306.485 112.300,306.103 113.550,305.544 114.144 C 304.031 115.750,302.616 120.643,301.844 126.931 C 301.682 128.248,301.224 129.327,300.403 130.322 C 299.742 131.125,299.200 132.065,299.200 132.411 C 299.200 132.757,299.008 133.232,298.773 133.467 C 298.538 133.702,298.198 134.863,298.018 136.047 C 296.856 143.693,296.627 144.641,295.615 146.000 C 294.205 147.894,293.398 150.529,292.553 156.000 C 291.980 159.706,291.633 160.872,290.770 162.000 C 289.328 163.884,287.204 171.859,287.198 175.409 C 287.197 176.148,286.779 177.055,286.097 177.800 C 284.894 179.114,283.595 182.378,283.598 184.080 C 283.599 184.675,283.330 186.198,283.000 187.465 C 282.670 188.731,282.400 190.349,282.400 191.059 C 282.400 191.916,282.022 192.765,281.277 193.580 C 279.793 195.204,279.036 197.597,278.167 203.400 C 277.575 207.356,277.258 208.447,276.365 209.607 C 272.372 214.787,272.501 228.800,276.541 228.800 C 277.047 228.800,277.575 229.164,277.805 229.673 C 278.022 230.153,278.920 230.956,279.800 231.456 L 281.400 232.365 312.996 232.383 C 347.860 232.402,346.946 232.465,348.655 229.915 C 349.065 229.303,349.696 228.802,350.059 228.801 C 353.933 228.794,354.534 218.069,350.784 215.854 C 350.175 215.494,349.424 215.200,349.114 215.200 C 348.805 215.200,347.974 214.635,347.268 213.945 C 345.374 212.093,344.610 212.036,321.356 212.017 C 297.969 211.998,296.678 211.928,296.097 210.651 C 295.581 209.516,296.362 206.921,297.778 205.064 C 298.914 203.575,299.600 201.125,300.596 195.000 C 301.171 191.464,301.815 189.600,302.462 189.600 C 303.303 189.600,304.829 184.008,305.602 178.092 C 305.885 175.926,306.227 174.921,306.940 174.151 C 308.304 172.680,309.872 167.420,310.442 162.403 C 310.630 160.754,310.967 159.344,311.191 159.270 C 311.416 159.195,311.600 158.878,311.600 158.567 C 311.600 158.255,311.746 158.000,311.925 158.000 C 312.354 158.000,314.000 154.209,314.000 153.222 C 314.000 152.799,314.179 151.981,314.398 151.405 C 314.617 150.829,314.974 148.793,315.191 146.881 C 315.408 144.969,315.769 143.344,315.993 143.269 C 316.217 143.194,316.400 142.878,316.400 142.567 C 316.400 142.255,316.578 142.000,316.795 142.000 C 317.298 142.000,318.343 139.530,318.826 137.200 C 319.443 134.222,319.927 131.505,320.186 129.559 C 320.321 128.546,320.774 127.349,321.193 126.899 C 322.623 125.365,325.200 116.586,325.200 113.250 C 325.200 112.533,325.585 111.625,326.147 111.020 C 327.739 109.302,329.223 104.127,329.853 98.094 C 329.997 96.722,330.265 95.600,330.449 95.600 C 331.057 95.600,332.325 92.606,332.402 90.988 C 332.527 88.368,332.446 88.075,331.274 86.876 C 330.655 86.243,329.903 85.131,329.602 84.405 C 328.328 81.329,324.263 80.024,319.200 81.065 M64.504 83.089 C 66.346 83.868,68.124 86.418,69.005 89.546 C 69.354 90.786,70.236 93.060,70.966 94.600 C 72.314 97.447,73.609 102.110,73.603 104.096 C 73.599 105.363,74.902 108.985,75.706 109.945 C 76.609 111.022,78.800 119.041,78.800 121.269 C 78.800 121.829,79.338 123.348,79.995 124.644 C 80.652 125.940,81.192 127.279,81.195 127.620 C 81.198 127.961,81.390 128.430,81.621 128.661 C 82.061 129.101,83.600 135.883,83.600 137.380 C 83.600 137.852,84.313 139.693,85.185 141.472 C 86.653 144.466,87.754 148.308,88.259 152.200 C 88.506 154.099,89.458 156.760,90.190 157.600 C 90.998 158.526,93.195 166.711,93.204 168.826 C 93.206 169.362,93.687 170.790,94.272 172.000 C 96.177 175.937,98.000 182.088,98.000 184.581 C 98.000 185.171,98.811 187.331,99.801 189.381 C 101.059 191.984,101.788 194.174,102.217 196.635 C 103.162 202.052,103.433 203.041,104.482 204.888 C 107.101 209.500,109.339 222.697,107.945 225.303 C 107.195 226.705,105.103 228.603,103.400 229.426 C 101.032 230.572,40.838 230.641,39.097 229.500 C 38.509 229.115,37.617 228.794,37.114 228.786 C 32.897 228.719,30.994 220.606,34.397 217.203 C 36.442 215.158,35.880 215.200,60.994 215.200 C 73.366 215.200,84.313 215.087,85.321 214.949 C 89.646 214.356,90.830 211.151,88.503 206.334 C 86.957 203.134,86.003 200.209,85.989 198.629 C 85.974 196.823,84.724 192.492,83.557 190.200 C 82.542 188.207,81.878 185.873,80.600 179.800 C 80.229 178.040,79.767 176.330,79.574 176.000 C 78.133 173.543,76.423 168.593,76.395 166.800 C 76.370 165.241,75.040 160.571,74.400 159.801 C 73.298 158.472,71.770 153.617,71.208 149.660 C 70.981 148.053,70.336 145.717,69.776 144.469 C 69.216 143.221,68.518 141.660,68.224 141.000 C 67.637 139.680,66.403 134.519,66.394 133.343 C 66.386 132.352,65.092 128.247,64.568 127.552 C 63.810 126.547,62.892 123.842,62.207 120.600 C 61.046 115.101,60.360 112.621,59.827 112.000 C 59.544 111.670,59.207 111.040,59.079 110.600 C 58.950 110.160,58.466 108.720,58.004 107.400 C 57.543 106.080,56.997 103.693,56.791 102.095 C 56.586 100.496,55.973 98.246,55.429 97.095 C 53.382 92.761,52.826 89.346,53.900 87.696 C 57.152 82.694,60.317 81.320,64.504 83.089 M203.636 82.589 C 205.360 82.857,206.376 83.873,207.835 86.787 L 208.929 88.974 208.436 93.187 C 207.916 97.624,207.398 99.479,205.586 103.400 C 204.481 105.790,203.190 110.594,203.197 112.292 C 203.201 113.376,202.346 115.673,200.550 119.404 C 199.807 120.945,199.198 122.565,199.195 123.004 C 199.179 125.319,197.511 131.438,196.046 134.549 C 195.141 136.473,194.400 138.506,194.400 139.066 C 194.400 141.773,192.793 147.187,190.753 151.356 C 190.119 152.652,189.598 154.272,189.596 154.956 C 189.593 155.640,189.323 157.084,188.996 158.164 C 188.668 159.244,188.400 160.545,188.400 161.056 C 188.400 161.567,187.663 163.558,186.762 165.482 C 185.861 167.405,184.986 169.793,184.818 170.789 C 184.191 174.504,183.491 177.825,183.172 178.600 C 182.991 179.040,182.230 180.750,181.481 182.400 C 180.732 184.050,180.001 186.430,179.857 187.689 C 179.407 191.631,178.399 194.825,176.169 199.379 C 175.636 200.467,175.200 201.864,175.200 202.484 C 175.200 203.103,174.840 204.909,174.400 206.497 C 173.281 210.534,173.775 213.603,175.750 214.894 C 175.998 215.056,187.146 215.191,200.524 215.194 L 224.848 215.200 226.824 216.494 C 227.911 217.205,228.800 217.950,228.800 218.149 C 228.800 218.349,229.049 218.712,229.354 218.956 C 229.669 219.208,229.998 220.477,230.116 221.895 C 230.362 224.858,230.035 225.403,226.273 228.297 L 223.801 230.200 192.342 230.200 C 163.951 230.200,160.812 230.137,160.142 229.554 C 159.734 229.198,158.871 228.781,158.224 228.627 C 152.898 227.357,151.985 220.788,155.954 212.299 C 156.632 210.849,157.356 208.884,157.564 207.931 C 157.772 206.979,158.226 204.940,158.574 203.400 C 158.922 201.860,159.205 200.365,159.203 200.078 C 159.200 199.486,160.766 195.905,161.162 195.600 C 161.533 195.314,162.800 191.083,162.800 190.129 C 162.800 188.680,164.378 183.039,165.353 181.000 C 166.887 177.795,167.599 175.677,167.609 174.292 C 167.619 172.934,168.876 167.814,169.511 166.544 C 171.403 162.758,172.400 159.909,172.400 158.285 C 172.400 156.156,174.848 148.632,175.811 147.800 C 176.066 147.580,176.584 145.870,176.962 144.000 C 177.340 142.130,177.908 139.684,178.225 138.565 C 178.541 137.446,178.800 136.238,178.800 135.882 C 178.800 135.526,179.303 134.372,179.918 133.318 C 180.533 132.263,181.353 129.960,181.739 128.200 C 183.401 120.636,183.737 119.358,184.254 118.611 C 184.554 118.177,184.800 117.561,184.800 117.242 C 184.800 116.924,185.057 116.379,185.370 116.031 C 185.684 115.684,186.237 113.780,186.600 111.800 C 187.553 106.591,189.020 101.957,190.208 100.400 C 190.695 99.762,192.000 94.605,192.000 93.320 C 192.000 91.061,193.677 87.722,196.105 85.146 C 199.125 81.943,199.234 81.906,203.636 82.589 M326.753 83.554 C 329.164 85.911,330.152 88.859,329.628 92.131 C 329.375 93.709,329.003 96.188,328.802 97.641 C 328.420 100.401,328.200 101.065,326.367 105.000 C 325.138 107.637,324.572 109.570,323.788 113.800 C 323.080 117.621,321.655 121.487,320.500 122.722 C 320.225 123.017,320.000 123.710,320.000 124.263 C 320.000 125.171,319.466 127.731,318.344 132.200 C 318.123 133.080,317.845 134.295,317.726 134.900 C 317.607 135.505,317.380 136.000,317.223 136.000 C 316.417 136.000,313.980 144.071,313.995 146.692 C 314.001 147.755,313.097 150.249,311.708 153.000 C 310.807 154.783,309.248 160.995,309.213 162.940 C 309.199 163.744,308.587 165.289,306.812 169.000 C 306.181 170.320,305.375 172.930,305.020 174.800 C 304.088 179.723,303.171 182.795,302.132 184.476 C 301.631 185.287,300.956 187.177,300.631 188.676 C 300.307 190.174,299.758 192.714,299.411 194.321 C 299.064 195.928,298.605 197.548,298.390 197.921 C 297.329 199.764,295.600 204.188,295.600 205.060 C 295.600 205.602,295.395 206.861,295.144 207.857 C 294.669 209.743,295.204 213.601,296.094 214.700 C 296.409 215.090,301.889 215.200,321.043 215.200 L 345.588 215.200 347.985 216.456 C 352.184 218.658,353.422 223.267,350.574 226.100 C 349.745 226.925,348.898 227.600,348.691 227.600 C 348.485 227.600,347.480 228.185,346.458 228.900 L 344.600 230.200 313.342 230.200 C 285.767 230.200,281.997 230.127,281.342 229.583 C 280.934 229.244,279.700 228.534,278.600 228.005 C 275.110 226.328,274.998 226.125,275.012 221.475 C 275.022 217.739,275.118 217.234,276.164 215.400 C 277.431 213.181,278.800 208.836,278.800 207.036 C 278.800 205.671,279.849 201.862,280.645 200.338 C 280.950 199.754,281.200 199.004,281.200 198.672 C 281.200 198.339,281.390 198.003,281.621 197.926 C 282.101 197.766,283.601 192.381,283.598 190.827 C 283.595 189.273,285.665 183.222,286.618 182.000 C 287.145 181.324,288.400 176.503,288.400 175.153 C 288.400 173.381,290.255 168.018,291.428 166.400 C 291.667 166.070,292.153 164.450,292.507 162.800 C 294.476 153.619,294.768 152.642,296.205 150.400 C 296.779 149.504,297.977 144.779,297.989 143.363 C 298.002 141.882,299.194 138.301,300.773 135.000 C 301.404 133.680,302.220 131.070,302.586 129.200 C 303.467 124.699,304.653 120.853,305.679 119.169 C 306.138 118.416,306.929 115.730,307.436 113.200 C 308.531 107.745,308.887 106.569,310.404 103.400 C 311.479 101.155,312.800 96.255,312.800 94.514 C 312.800 93.073,314.092 89.805,315.248 88.323 C 315.882 87.511,316.400 86.739,316.400 86.607 C 316.400 86.345,316.557 86.135,318.428 83.900 C 320.173 81.814,324.777 81.623,326.753 83.554 M10.200 122.202 C 6.532 123.009,3.550 124.066,3.331 124.636 C 3.196 124.988,2.528 125.200,1.557 125.200 C 0.044 125.200,0.000 125.240,0.000 126.600 C 0.000 128.547,2.153 128.671,3.534 126.803 C 5.532 124.102,10.027 123.224,14.250 124.711 C 18.968 126.373,20.194 128.327,20.122 134.075 C 20.058 139.250,20.185 139.082,13.172 143.283 C 11.257 144.430,7.553 143.555,4.957 141.342 C 2.449 139.204,0.000 138.838,0.000 140.600 C 0.000 141.474,0.174 141.600,1.384 141.600 C 2.656 141.600,4.400 142.782,4.400 143.643 C 4.400 145.991,16.313 146.246,16.390 143.900 C 16.407 143.376,17.899 142.078,18.650 141.934 C 21.368 141.410,22.405 133.482,20.537 127.516 C 19.874 125.402,18.593 124.386,15.600 123.601 C 14.610 123.341,13.440 122.821,13.000 122.445 C 12.311 121.857,11.922 121.823,10.200 122.202 M126.715 122.435 C 126.117 122.881,124.947 123.349,124.115 123.475 C 121.096 123.931,118.800 126.261,118.800 128.866 C 118.800 129.386,118.459 130.448,118.042 131.226 C 117.379 132.464,117.350 132.794,117.810 133.888 C 118.098 134.574,118.462 136.153,118.617 137.396 C 118.911 139.748,120.301 142.000,121.458 142.000 C 121.781 142.000,122.530 142.512,123.123 143.138 C 126.288 146.483,132.300 146.204,135.438 142.569 C 136.297 141.573,137.582 140.395,138.293 139.951 C 141.600 137.886,141.539 130.059,138.192 126.958 C 137.646 126.452,137.200 125.931,137.200 125.800 C 137.200 125.091,134.926 123.627,133.475 123.401 C 132.554 123.258,131.037 122.794,130.104 122.370 C 128.040 121.432,128.059 121.432,126.715 122.435 M246.130 122.399 C 245.211 122.808,243.618 123.268,242.589 123.423 C 237.068 124.251,233.182 135.516,237.171 139.133 C 240.463 142.118,241.140 142.778,241.643 143.490 C 243.584 146.235,250.422 145.965,253.170 143.034 C 253.703 142.465,254.378 142.000,254.670 142.000 C 256.038 142.000,258.000 138.273,258.000 135.675 C 258.000 135.072,258.288 134.167,258.640 133.665 C 259.226 132.827,259.226 132.692,258.640 132.044 C 258.288 131.655,258.000 131.199,258.000 131.031 C 258.000 127.379,255.418 124.082,252.066 123.456 C 251.333 123.319,250.225 122.845,249.605 122.403 C 248.266 121.450,248.264 121.450,246.130 122.399 M372.308 122.387 C 371.758 122.819,370.518 123.290,369.554 123.433 C 366.817 123.839,365.410 124.998,364.622 127.497 C 364.249 128.679,363.497 130.306,362.949 131.113 C 362.318 132.043,362.041 132.876,362.192 133.390 C 362.324 133.835,362.537 134.782,362.667 135.494 C 362.797 136.205,363.150 136.992,363.451 137.243 C 363.753 137.493,364.000 137.925,364.000 138.203 C 364.000 139.870,367.353 143.745,369.728 144.823 C 373.325 146.457,379.995 145.477,381.227 143.134 C 381.497 142.620,382.670 141.300,383.833 140.200 C 387.078 137.132,387.437 131.282,384.575 128.106 C 383.829 127.278,383.214 126.463,383.209 126.296 C 383.175 125.161,380.845 123.663,378.696 123.395 C 377.433 123.237,376.400 122.985,376.400 122.834 C 376.400 122.592,374.089 121.600,373.526 121.600 C 373.406 121.600,372.858 121.954,372.308 122.387 M133.879 125.014 C 135.250 125.661,136.504 127.181,137.004 128.800 C 137.173 129.350,137.647 130.428,138.056 131.195 C 139.789 134.442,135.801 141.960,132.317 142.014 C 131.813 142.022,130.950 142.286,130.400 142.600 C 129.144 143.318,127.420 143.358,126.729 142.686 C 126.438 142.403,125.419 141.941,124.465 141.659 C 120.167 140.390,118.431 136.145,119.841 130.346 C 120.541 127.467,122.211 125.200,123.632 125.200 C 124.006 125.200,125.051 124.870,125.953 124.466 C 127.808 123.635,131.498 123.891,133.879 125.014 M254.553 126.393 C 255.769 127.581,256.800 131.099,256.800 134.059 C 256.800 138.882,255.876 140.052,250.400 142.164 C 250.070 142.291,249.493 142.615,249.117 142.885 C 248.577 143.272,248.076 143.267,246.717 142.858 C 245.773 142.574,244.494 142.243,243.877 142.122 C 241.798 141.715,239.041 138.525,238.098 135.435 L 237.258 132.685 238.429 130.610 C 239.073 129.469,239.606 128.280,239.614 127.968 C 239.719 123.849,250.761 122.685,254.553 126.393 M379.504 125.012 C 380.810 125.664,382.400 127.533,382.400 128.418 C 382.400 128.689,382.915 129.748,383.544 130.770 C 385.324 133.663,382.089 142.000,379.187 142.000 C 378.974 142.000,378.800 142.153,378.800 142.341 C 378.800 142.528,377.618 143.001,376.173 143.392 L 373.545 144.104 370.182 142.414 C 365.651 140.138,365.107 139.253,365.053 134.067 C 365.011 129.980,365.774 127.347,367.390 126.000 C 369.641 124.124,376.588 123.557,379.504 125.012 M40.400 247.945 C 40.070 248.127,38.514 248.497,36.943 248.767 C 30.781 249.825,29.269 257.735,34.141 263.423 C 36.254 265.891,37.161 266.000,55.576 266.000 C 76.030 266.000,77.151 265.746,79.271 260.629 C 79.543 259.972,80.065 259.135,80.431 258.769 C 81.180 258.020,79.248 251.191,77.910 249.853 C 76.230 248.173,43.043 246.485,40.400 247.945 M182.000 248.681 C 177.798 249.404,176.400 250.756,176.400 254.098 C 176.400 255.214,176.171 256.092,175.800 256.400 C 174.980 257.081,174.970 261.943,175.787 263.024 C 176.132 263.479,176.382 264.710,176.392 266.000 C 176.428 270.552,178.316 276.104,180.100 276.903 C 180.817 277.224,181.200 277.701,181.200 278.275 C 181.200 279.274,182.693 282.000,183.240 282.000 C 183.438 282.000,183.600 282.249,183.600 282.554 C 183.600 282.859,184.095 283.427,184.700 283.817 C 185.305 284.207,185.944 284.768,186.120 285.063 C 186.296 285.358,187.016 285.894,187.720 286.254 C 188.424 286.613,189.735 287.579,190.634 288.401 C 195.330 292.694,217.461 292.170,217.587 287.762 C 217.607 287.070,218.985 286.000,219.856 286.000 C 220.914 286.000,223.086 283.828,223.384 282.472 C 223.538 281.774,224.054 281.194,224.829 280.851 C 226.618 280.059,228.800 275.942,228.800 273.358 C 228.800 272.877,229.314 271.935,229.942 271.262 C 231.770 269.305,232.400 266.254,232.397 259.374 C 232.394 251.770,231.590 250.371,226.400 248.934 C 224.670 248.455,184.638 248.227,182.000 248.681 M72.618 249.637 C 77.058 250.458,78.131 251.571,78.616 255.863 C 79.059 259.772,77.483 261.782,72.800 263.283 C 69.750 264.261,40.247 264.374,38.976 263.413 C 38.549 263.090,37.793 262.820,37.297 262.813 C 36.800 262.806,35.846 262.313,35.178 261.718 C 30.623 257.659,32.265 250.827,38.062 249.715 C 41.036 249.145,69.606 249.080,72.618 249.637 M226.138 250.300 C 230.623 252.788,232.426 261.905,229.401 266.798 C 229.269 267.012,228.714 268.907,228.168 271.008 C 227.270 274.461,225.191 278.800,224.433 278.800 C 224.270 278.800,223.545 279.622,222.823 280.628 C 220.851 283.373,220.067 284.076,216.900 285.934 C 215.305 286.870,213.998 287.763,213.995 287.918 C 213.986 288.495,210.908 289.577,208.123 289.982 C 201.172 290.992,195.329 289.934,192.228 287.102 C 191.565 286.496,190.718 286.000,190.348 286.000 C 189.772 286.000,188.844 285.188,185.690 281.927 C 185.410 281.637,184.555 280.787,183.790 280.039 C 183.026 279.290,182.400 278.434,182.400 278.137 C 182.400 277.553,181.564 275.930,179.959 273.400 C 178.249 270.704,177.711 268.778,177.409 264.273 C 176.776 254.811,177.791 250.906,181.072 250.180 C 181.693 250.042,182.380 249.870,182.600 249.797 C 184.404 249.195,224.992 249.664,226.138 250.300 M304.514 259.080 C 303.587 259.202,302.865 259.715,301.922 260.924 C 301.204 261.846,300.331 262.812,299.983 263.070 C 297.459 264.945,297.852 269.519,300.759 272.103 C 301.441 272.710,302.000 273.447,302.000 273.741 C 302.000 275.027,304.159 276.025,308.600 276.791 C 310.140 277.057,311.850 277.587,312.400 277.969 C 313.381 278.650,313.992 278.880,316.800 279.626 C 321.644 280.911,338.761 279.682,339.817 277.972 C 340.077 277.552,342.504 276.871,345.449 276.392 C 353.530 275.077,356.345 263.910,349.575 260.020 C 347.431 258.788,340.791 258.635,336.600 259.722 C 330.043 261.422,323.795 261.448,316.000 259.809 C 313.211 259.222,306.622 258.804,304.514 259.080 M346.017 260.106 C 349.937 261.473,353.539 267.825,351.400 269.600 C 351.070 269.874,350.800 270.346,350.800 270.649 C 350.800 270.952,350.611 271.200,350.381 271.200 C 350.150 271.200,349.179 272.028,348.223 273.041 C 346.278 275.100,344.448 275.703,338.000 276.409 C 336.130 276.614,333.520 276.965,332.200 277.189 C 327.513 277.983,316.678 277.297,310.000 275.783 C 308.570 275.459,307.126 275.195,306.791 275.197 C 305.690 275.203,303.354 272.891,302.373 270.827 C 301.844 269.712,301.274 268.800,301.106 268.800 C 300.658 268.800,300.732 266.489,301.189 266.207 C 301.403 266.074,301.758 265.298,301.978 264.481 C 302.198 263.664,302.905 262.367,303.548 261.598 L 304.718 260.200 308.050 260.301 C 311.128 260.395,314.239 261.158,315.517 262.132 C 317.755 263.838,334.080 264.007,336.235 262.346 C 337.000 261.756,341.974 260.114,344.400 259.650 C 344.510 259.629,345.238 259.834,346.017 260.106 M192.639 262.138 C 190.427 262.659,190.072 263.191,190.028 266.044 C 190.005 267.571,190.240 268.189,191.396 269.644 C 192.164 270.610,192.794 271.631,192.796 271.913 C 192.802 272.680,195.040 274.723,196.579 275.366 C 197.322 275.676,198.318 276.318,198.792 276.792 C 200.196 278.196,204.945 278.480,207.800 277.330 C 208.703 276.966,210.124 276.047,210.354 275.678 C 210.489 275.461,211.578 274.639,212.774 273.853 C 216.301 271.532,218.024 263.956,215.414 262.246 C 214.193 261.446,195.947 261.360,192.639 262.138 M214.571 264.229 C 215.751 265.408,215.284 269.793,213.932 270.221 C 213.503 270.358,212.973 270.859,212.756 271.335 C 212.267 272.407,210.423 273.613,207.800 274.577 C 206.700 274.982,205.597 275.471,205.349 275.665 C 205.085 275.871,204.450 275.847,203.823 275.609 C 203.232 275.384,202.142 275.200,201.403 275.200 C 200.663 275.200,199.785 274.928,199.452 274.595 C 199.119 274.262,198.251 273.880,197.523 273.746 C 195.706 273.412,194.400 272.529,194.400 271.634 C 194.400 271.224,194.058 270.123,193.640 269.189 C 192.879 267.491,193.109 265.200,194.039 265.200 C 194.238 265.200,194.400 264.945,194.400 264.633 C 194.400 263.401,213.364 263.021,214.571 264.229 M37.433 269.782 C 34.032 270.695,30.880 275.495,31.396 278.974 C 32.627 287.272,32.994 287.400,55.600 287.400 C 75.651 287.400,78.029 286.966,79.179 283.094 C 79.455 282.162,80.017 280.456,80.426 279.302 C 81.150 277.265,81.150 277.184,80.435 276.502 C 80.030 276.116,79.327 275.080,78.873 274.200 C 77.487 271.510,76.235 270.390,73.929 269.776 C 70.964 268.987,40.376 268.992,37.433 269.782 M72.262 271.800 C 73.051 272.130,74.036 272.400,74.449 272.400 C 74.862 272.400,75.200 272.568,75.200 272.773 C 75.200 272.978,75.540 273.254,75.955 273.386 C 79.979 274.663,79.458 283.241,75.241 285.139 C 71.109 286.998,36.513 286.113,34.497 284.097 C 31.030 280.630,33.182 272.489,37.593 272.386 C 37.927 272.378,38.650 272.114,39.200 271.800 C 40.717 270.933,70.186 270.933,72.262 271.800 " stroke="none" fill="#fcd4bc" fill-rule="evenodd"></path></g></svg>